<svg width="24" height="24" viewBox="0 0 24 24" fill="none" xmlns="http://www.w3.org/2000/svg">
<path d="M12.0001 14.75C14.4164 14.75 16.3751 12.7912 16.3751 10.375C16.3751 7.95875 14.4164 6 12.0001 6C9.58388 6 7.62512 7.95875 7.62512 10.375C7.62512 12.7912 9.58388 14.75 12.0001 14.75ZM12.0001 14.75C15.4102 14.75 18.2507 16.5788 18.8733 19M12.0001 14.75C8.59007 14.75 5.74953 16.5788 5.12695 19M22 12C22 17.5228 17.5228 22 12 22C6.47715 22 2 17.5228 2 12C2 6.47715 6.47715 2 12 2C17.5228 2 22 6.47715 22 12Z" stroke="black" stroke-width="2" stroke-linecap="round"/>
</svg>
