<svg width="8" height="8" viewBox="0 0 8 8" fill="none" xmlns="http://www.w3.org/2000/svg">
<path d="M5.23735 3.71786L7.09333 1.86187C7.43513 1.52007 7.43513 0.965543 7.09333 0.624512C6.75241 0.282715 6.19777 0.282715 5.85598 0.624512L3.99999 2.48061L2.14401 0.624621C1.80221 0.282825 1.24768 0.282825 0.906647 0.624621C0.56485 0.965543 0.56485 1.52018 0.906647 1.86198L2.76274 3.71786L0.906756 5.57384C0.56496 5.91564 0.56496 6.47017 0.906756 6.8112C1.24768 7.153 1.80232 7.153 2.14412 6.8112L3.99999 4.95522L5.85598 6.8112C6.19777 7.153 6.7523 7.153 7.09333 6.8112C7.43513 6.47028 7.43513 5.91564 7.09333 5.57384L5.23735 3.71786Z" fill="#F44336"/>
</svg>
