<svg width="28" height="28" viewBox="0 0 28 28" fill="none" xmlns="http://www.w3.org/2000/svg">
<path d="M3.50652 9.33333C3.5 9.81471 3.5 10.3549 3.5 10.9667V17.0333C3.5 19.6469 3.5 20.9537 4.00864 21.952C4.45605 22.83 5.16995 23.544 6.04804 23.9914C7.0463 24.5 8.35309 24.5 10.9667 24.5H17.0333C17.6451 24.5 18.1853 24.5 18.6667 24.4935M3.50652 9.33333C3.52787 7.75822 3.61906 6.81263 4.00864 6.04804C4.45605 5.16995 5.16995 4.45605 6.04804 4.00864C7.0463 3.5 8.35309 3.5 10.9667 3.5H17.0333C19.6469 3.5 20.9537 3.5 21.952 4.00864C22.83 4.45605 23.544 5.16995 23.9914 6.04804C24.5 7.0463 24.5 8.35309 24.5 10.9667V17.0333C24.5 18.7995 24.5 19.9689 24.343 20.8496M3.50652 9.33333L9.33986 15.1667M18.6667 24.4935C20.2418 24.4721 21.1874 24.3809 21.952 23.9914C22.83 23.544 23.544 22.83 23.9914 21.952C24.1563 21.6283 24.2677 21.2722 24.343 20.8496M18.6667 24.4935L9.33986 15.1667M9.33986 15.1667L11.7373 12.7693C12.5293 11.9772 12.9253 11.5812 13.382 11.4328C13.7837 11.3023 14.2163 11.3023 14.618 11.4328C15.0747 11.5812 15.4707 11.9772 16.2627 12.7693L24.343 20.8496M19.845 8.16667H19.8217" stroke="#003399" stroke-width="2" stroke-linecap="round"/>
</svg>
