<svg width="17" height="22" viewBox="0 0 17 22" fill="none" xmlns="http://www.w3.org/2000/svg">
<path d="M8.99853 7.33672C8.47784 6.81413 7.84389 6.40123 7.1391 6.13318C6.80635 6.50298 6.57977 6.95317 6.48515 7.44134C6.45942 7.57296 6.44398 7.70491 6.43689 7.83623C6.49481 7.85614 6.55146 7.87741 6.60685 7.90154C7.22086 8.16186 7.748 8.59763 8.11741 9.14663C8.4141 9.58556 8.61106 10.0937 8.67738 10.6444C8.69476 10.7818 8.70311 10.9218 8.70311 11.0647C8.70311 11.5416 8.60723 11.9909 8.4341 12.4008C8.21912 12.9064 7.88637 13.3537 7.46865 13.7016C7.37985 13.7766 7.2865 13.8461 7.18998 13.9114C6.64098 14.2821 5.98576 14.4971 5.27069 14.4971C4.79505 14.4971 4.34645 14.4009 3.93582 14.2281C3.32051 13.9677 2.79531 13.5317 2.42459 12.983C2.05513 12.4349 1.84016 11.7781 1.84016 11.0647C1.84016 10.588 1.93478 10.1395 2.10854 9.72848C2.3422 9.17691 2.7187 8.6955 3.19177 8.33604C3.18274 8.21147 3.17886 8.08694 3.17886 7.96241C3.17886 7.32267 3.27926 6.69833 3.47044 6.10812C2.73861 6.37427 2.08213 6.79743 1.54406 7.3368C0.590216 8.28778 -0.00193576 9.61138 4.7548e-06 11.0647C-0.00189357 12.5183 0.590258 13.8419 1.54406 14.7932C2.33828 15.5887 3.39126 16.1303 4.56265 16.2877V17.9309H2.1201V19.3462H4.56265V21.7198H5.97863V19.3461H8.42313V17.9308H5.97863V16.2876C7.1507 16.1303 8.20495 15.5887 8.99853 14.7932C9.26371 14.528 9.49994 14.2352 9.70522 13.9182C10.2362 13.0959 10.5445 12.1135 10.5432 11.0647C10.5432 10.8185 10.5258 10.5749 10.4937 10.3374C10.3321 9.17236 9.79018 8.12647 8.99853 7.33672Z" fill="#A4A4A4"/>
<path d="M12.4239 0.121033V1.53638H14.5839L12.3518 3.76848C11.4121 3.05213 10.2825 2.69006 9.15877 2.69107C7.81294 2.69006 6.45812 3.20657 5.43088 4.23576C4.69585 4.96885 4.22346 5.86891 4.01232 6.81411C4.00975 6.82567 4.00848 6.83727 4.00523 6.84693C3.99688 6.88363 3.9898 6.92063 3.98275 6.95572C3.96984 7.02394 3.95828 7.09185 3.94736 7.15973C3.94027 7.20061 3.93449 7.24343 3.92998 7.28426C3.92162 7.3464 3.91454 7.4101 3.90939 7.4738C3.90618 7.5105 3.9023 7.54754 3.9004 7.5842C3.89914 7.60255 3.89783 7.62119 3.89657 7.64085C3.89332 7.67785 3.89205 7.71581 3.89074 7.75247C3.88817 7.82199 3.88623 7.89278 3.88623 7.9623C3.88623 8.01604 3.88817 8.06979 3.88948 8.1248C3.89205 8.17888 3.8953 8.23228 3.89783 8.28767L3.90618 8.40672C3.90618 8.42638 3.90939 8.44629 3.91066 8.46755C4.02396 9.64342 4.53175 10.793 5.43088 11.6905C5.9754 12.2353 6.61256 12.6369 7.29031 12.8934C7.49558 12.6672 7.66297 12.4053 7.78332 12.1233C7.90752 11.8276 7.97835 11.5148 7.99248 11.192C7.53232 11.0266 7.10237 10.7605 6.73165 10.3898C6.39632 10.0528 6.14532 9.66763 5.97861 9.25439C5.85956 8.96247 5.78295 8.65679 5.74946 8.34846C5.72761 8.16597 5.72246 7.98192 5.73081 7.79947C5.73339 7.75408 5.73659 7.71033 5.73917 7.66625C5.74237 7.63376 5.74494 7.60124 5.75072 7.56842C5.75072 7.55585 5.7533 7.54332 5.75461 7.53045C5.75781 7.49924 5.76169 7.46675 5.76747 7.43583C5.77456 7.39335 5.78165 7.34927 5.79 7.30713C5.82729 7.11434 5.88074 6.9248 5.95152 6.74071C5.96443 6.70692 5.97726 6.67443 5.99274 6.64031C6.00691 6.60491 6.02231 6.56952 6.03906 6.53413C6.05323 6.49873 6.06998 6.4633 6.08863 6.42921C6.10407 6.39416 6.12271 6.36003 6.14271 6.32624C6.23602 6.15311 6.34612 5.98644 6.47226 5.82774C6.49799 5.79526 6.52503 5.76277 6.55144 5.73151C6.60999 5.6649 6.66922 5.5999 6.73292 5.5362C6.81206 5.45702 6.89255 5.38332 6.9762 5.3154C7.2504 5.08756 7.55093 4.90895 7.8663 4.78185C8.48482 4.53118 9.16577 4.46744 9.81521 4.59357C10.4653 4.71971 11.0805 5.03061 11.5865 5.53616C11.9231 5.87309 12.1722 6.25828 12.3389 6.67119C12.5912 7.2897 12.6549 7.96935 12.5288 8.61912C12.4013 9.26852 12.0898 9.88417 11.5865 10.3898C11.4758 10.5001 11.3599 10.6022 11.2396 10.6926C11.2466 10.8171 11.2505 10.9417 11.2505 11.0645C11.2525 11.6988 11.1514 12.3241 10.9577 12.9188C11.6624 12.6639 12.3234 12.2536 12.8866 11.6904C13.9145 10.6642 14.4326 9.30939 14.4313 7.96226C14.4326 6.83815 14.0702 5.71055 13.3526 4.76923L15.5847 2.53714V4.69811H17V0.121033H12.4239Z" fill="#A4A4A4"/>
</svg>
