<svg width="24" height="24" viewBox="0 0 24 24" fill="none" xmlns="http://www.w3.org/2000/svg">
<path d="M2 3C1.44772 3 1 3.44772 1 4C1 4.55228 1.44772 5 2 5V3ZM8 5C8.55228 5 9 4.55228 9 4C9 3.44772 8.55228 3 8 3V5ZM2 9C1.44772 9 1 9.44772 1 10C1 10.5523 1.44772 11 2 11V9ZM6 11C6.55228 11 7 10.5523 7 10C7 9.44772 6.55228 9 6 9V11ZM2 14C1.44772 14 1 14.4477 1 15C1 15.5523 1.44772 16 2 16V14ZM8 16C8.55228 16 9 15.5523 9 15C9 14.4477 8.55228 14 8 14V16ZM2 19C1.44772 19 1 19.4477 1 20C1 20.5523 1.44772 21 2 21V19ZM20 21C20.5523 21 21 20.5523 21 20C21 19.4477 20.5523 19 20 19V21ZM21.2929 16.7071C21.6834 17.0976 22.3166 17.0976 22.7071 16.7071C23.0976 16.3166 23.0976 15.6834 22.7071 15.2929L21.2929 16.7071ZM2 5H8V3H2V5ZM2 11H6V9H2V11ZM2 16H8V14H2V16ZM2 21H20V19H2V21ZM20.5294 9.76471C20.5294 12.3962 18.3962 14.5294 15.7647 14.5294V16.5294C19.5007 16.5294 22.5294 13.5007 22.5294 9.76471H20.5294ZM15.7647 14.5294C13.1332 14.5294 11 12.3962 11 9.76471H9C9 13.5007 12.0287 16.5294 15.7647 16.5294V14.5294ZM11 9.76471C11 7.13323 13.1332 5 15.7647 5V3C12.0287 3 9 6.02866 9 9.76471H11ZM15.7647 5C18.3962 5 20.5294 7.13323 20.5294 9.76471H22.5294C22.5294 6.02866 19.5007 3 15.7647 3V5ZM19.1752 14.5895L21.2929 16.7071L22.7071 15.2929L20.5895 13.1752L19.1752 14.5895Z" fill="black"/>
</svg>
