<svg width="16" height="16" viewBox="0 0 16 16" fill="none" xmlns="http://www.w3.org/2000/svg">
<g clip-path="url(#clip0_756_5674)">
<path d="M11.2716 1.33331H4.72839C4.48975 1.33331 4.29629 1.52811 4.29629 1.76841C4.29629 2.96989 3.32901 3.94388 2.1358 3.94388H1.82716C1.55443 3.94388 1.33333 4.16651 1.33333 4.44114V5.08155C1.33333 9.21317 3.55788 13.02 7.14469 15.0265L7.42485 15.1832C7.78254 15.3833 8.21746 15.3833 8.57514 15.1832L8.85531 15.0265C12.4421 13.02 14.6667 9.21317 14.6667 5.08155V4.44114C14.6667 4.16651 14.4456 3.94388 14.1728 3.94388H13.8642C12.671 3.94388 11.7037 2.96989 11.7037 1.76841C11.7037 1.52811 11.5102 1.33331 11.2716 1.33331Z" fill="#5E94FF" fill-opacity="0.74"/>
<path d="M10.9167 7.58331C10.9167 9.19414 9.61091 10.5 8.00008 10.5C6.38925 10.5 5.08341 9.19414 5.08341 7.58331C5.08341 5.97248 6.38925 4.66665 8.00008 4.66665C9.61091 4.66665 10.9167 5.97248 10.9167 7.58331Z" fill="#5E94FF" fill-opacity="0.74"/>
<path d="M8.00008 10.5C9.61091 10.5 10.9167 9.19414 10.9167 7.58331C10.9167 5.97248 9.61091 4.66665 8.00008 4.66665C6.38925 4.66665 5.08341 5.97248 5.08341 7.58331C5.08341 9.19414 6.38925 10.5 8.00008 10.5ZM8.00008 10.5C6.30247 10.5 4.81658 11.1798 4 12.1963M8.00008 10.5C9.69769 10.5 11.1836 11.1798 12.0002 12.1963M4.72839 1.33331H11.2716C11.5102 1.33331 11.7037 1.52811 11.7037 1.76841C11.7037 2.96989 12.671 3.94388 13.8642 3.94388H14.1728C14.4456 3.94388 14.6667 4.16651 14.6667 4.44114V5.08155C14.6667 9.21317 12.4421 13.02 8.85531 15.0265L8.57514 15.1832C8.21746 15.3833 7.78254 15.3833 7.42485 15.1832L7.14469 15.0265C3.55788 13.02 1.33333 9.21317 1.33333 5.08155V4.44114C1.33333 4.16651 1.55443 3.94388 1.82716 3.94388H2.1358C3.32901 3.94388 4.29629 2.96989 4.29629 1.76841C4.29629 1.52811 4.48975 1.33331 4.72839 1.33331Z" stroke="white" stroke-linecap="round"/>
</g>
<defs>
<clipPath id="clip0_756_5674">
<rect width="16" height="16" fill="white"/>
</clipPath>
</defs>
</svg>
