<svg width="24" height="24" viewBox="0 0 24 24" xmlns="http://www.w3.org/2000/svg">
  <path
    d="M11.5516 1.9086C11.735 1.53698 12.265 1.53698 12.4484 1.9086L15.1165 7.31479C15.1893 7.46236 15.3301 7.56465 15.4929 7.58831L21.459 8.45524C21.8691 8.51483 22.0329 9.01882 21.7361 9.30808L17.419 13.5162C17.3012 13.6311 17.2474 13.7966 17.2752 13.9588L18.2944 19.9008C18.3644 20.3092 17.9357 20.6207 17.5689 20.4279L12.2327 17.6224C12.087 17.5458 11.913 17.5458 11.7673 17.6224L6.43109 20.4279C6.06428 20.6207 5.63556 20.3092 5.70562 19.9008L6.72474 13.9588C6.75256 13.7966 6.69879 13.6311 6.58095 13.5162L2.26385 9.30808C1.96709 9.01882 2.13084 8.51483 2.54095 8.45524L8.50704 7.58831C8.66989 7.56465 8.81068 7.46236 8.88351 7.31479L11.5516 1.9086Z"
    fill="currentColor"
    stroke="none"
  />
</svg>
