<svg width="90" height="90" viewBox="0 0 90 90" fill="none" xmlns="http://www.w3.org/2000/svg">
<path d="M79.9512 44.6741C79.9512 45.4577 79.9255 46.2421 79.874 47.0272C79.849 47.4114 79.8218 47.7955 79.7832 48.1706C79.7696 48.3283 79.7514 48.4838 79.7332 48.6393C79.6878 49.0525 79.6356 49.4664 79.5766 49.881L79.5153 50.2721C79.4472 50.702 79.3715 51.1319 79.2882 51.5618C79.2655 51.6807 79.2406 51.7905 79.2156 51.9208C79.127 52.3508 79.0317 52.7807 78.925 53.2083C78.8955 53.3341 78.8614 53.4575 78.8296 53.5833C78.7229 53.9972 78.6026 54.4088 78.4891 54.8204C78.4459 54.9668 78.4005 55.1132 78.3529 55.2618C78.2348 55.6414 78.1122 56.021 77.9805 56.4052C77.9169 56.5904 77.8488 56.7756 77.7807 56.9609C77.6581 57.2924 77.5332 57.6217 77.4016 57.951C77.3062 58.1797 77.2063 58.4221 77.1064 58.6576C76.9906 58.9297 76.8794 59.1996 76.75 59.4694C76.6206 59.7393 76.473 60.0571 76.3277 60.3498C76.2278 60.5556 76.1279 60.7592 76.0234 60.9627C75.8388 61.3194 75.6481 61.6723 75.4513 62.0215C75.3741 62.1609 75.2969 62.3004 75.2243 62.4376C74.9972 62.8424 74.7452 63.2426 74.4932 63.6428L74.332 63.8989C74.055 64.3288 73.7644 64.7541 73.4647 65.1772L73.3444 65.351C73.0447 65.7672 72.7314 66.1788 72.4113 66.5858C72.3545 66.659 72.3 66.7322 72.2433 66.8145C72.0389 67.0706 71.8301 67.3176 71.6189 67.5668L71.5939 67.5966L42.263 9.45117C40.7161 6.30002 39.1692 3.14963 37.6224 0C36.7142 0.153213 35.772 0.340724 34.7798 0.576261C34.3099 0.686025 33.8535 0.804939 33.4176 0.921563H33.3813H33.3563L33.2996 0.935283C32.7955 1.07249 32.3074 1.21427 31.8397 1.35833C23.3877 3.95453 15.8847 9.00591 10.2712 15.8792C10.1554 16.021 10.0441 16.1651 9.91926 16.3092L9.87839 16.3617C7.02437 19.9431 4.73125 23.9432 3.07863 28.2232C3.07863 28.2437 3.06273 28.262 3.05592 28.2826C2.95375 28.5502 2.85159 28.8177 2.75396 29.0876C2.70175 29.2339 2.64725 29.3803 2.59503 29.5289L2.44973 29.9474C2.35438 30.2264 2.26129 30.5054 2.17275 30.7866C2.16795 30.7977 2.16415 30.8092 2.16139 30.8209C0.754265 35.2104 0.0252932 39.7917 0 44.4043C0 44.6329 0 44.8433 0 45.0628C0.043037 51.4147 1.41868 57.6856 4.03672 63.4644L4.07078 63.5421C4.17067 63.7708 4.27511 63.9812 4.37728 64.1984C4.44539 64.3425 4.51123 64.4843 4.58161 64.6261C4.62929 64.729 4.68151 64.8296 4.73146 64.9302C9.65531 74.8869 18.0458 82.6697 28.3025 86.7939L28.4319 86.8442C28.8254 86.9967 29.222 87.1491 29.6216 87.3016L30.0484 87.4548C30.2391 87.5234 30.4321 87.592 30.6251 87.656C30.9361 87.7612 31.2471 87.8641 31.5605 87.9624L31.9759 88.0905C32.2961 88.1865 32.6162 88.2803 32.9386 88.3718L33.177 88.4381C33.5448 88.5387 33.9171 88.6347 34.2894 88.7262L34.5619 88.7925C34.9478 88.884 35.3361 88.9732 35.7243 89.0555L35.8447 89.0807C36.7165 89.2636 37.5959 89.4161 38.4828 89.538C40.8179 89.8764 43.1757 90.0294 45.5346 89.9954L40.2651 79.5586C39.6521 79.4732 39.0466 79.3741 38.4488 79.2613L38.0583 79.1836L37.4702 79.0578L36.7687 78.8954L36.2624 78.7674C36.0899 78.7239 35.9196 78.6782 35.7493 78.6302L35.2475 78.4884L34.9388 78.3992C34.3757 78.23 33.8217 78.0448 33.2746 77.8481H33.261L33.1565 77.8092C32.9136 77.7223 32.6752 77.6309 32.4345 77.5371C32.1666 77.4319 31.8965 77.3267 31.6308 77.217H31.6172L31.5582 77.1918C31.0156 76.9631 30.4798 76.7207 29.953 76.4692L29.8463 76.4166C29.3786 76.1879 28.92 75.9592 28.4659 75.7077L28.1049 75.5087C27.9279 75.4104 27.7553 75.3052 27.5805 75.2046V75.2183L27.5192 75.184L27.4624 75.1497C26.9516 74.8502 26.4544 74.5414 25.964 74.2213L25.8641 74.155C25.4297 73.8699 25.0044 73.5757 24.5881 73.2723L24.2567 73.0276C23.9297 72.7852 23.6089 72.5383 23.294 72.2867C23.1056 72.1381 22.9194 71.9849 22.7355 71.8294C22.5085 71.6396 22.2814 71.4498 22.0658 71.2577C21.8501 71.0656 21.5663 70.814 21.3233 70.5877L20.8942 70.1829C20.5968 69.897 20.3039 69.6089 20.0179 69.3139L19.7681 69.0532C19.4457 68.7125 19.1279 68.3672 18.8191 68.015C18.7714 67.9625 18.726 67.9076 18.6806 67.855C18.3514 67.4754 18.029 67.0889 17.718 66.6979L17.6249 66.579C17.3093 66.1788 17.0028 65.774 16.7168 65.3601L16.6101 65.2138C16.3285 64.8159 16.0546 64.4126 15.7882 64.0041L15.627 63.7548C15.3886 63.3821 15.1593 63.007 14.9345 62.6274C14.8528 62.4879 14.7733 62.3462 14.6916 62.2044C14.5077 61.8797 14.3283 61.555 14.1535 61.2257C14.04 61.0107 13.9265 60.7935 13.822 60.5762C13.6926 60.3178 13.5632 60.0594 13.4406 59.7987C13.2998 59.4991 13.1636 59.1973 13.0319 58.8955C12.9502 58.7102 12.8707 58.525 12.7913 58.3398C12.6324 57.9586 12.481 57.5775 12.3372 57.1964L12.2078 56.8511C12.0443 56.3937 11.8877 55.9364 11.7424 55.479C11.7242 55.4196 11.7038 55.3624 11.6856 55.303C11.5343 54.8044 11.3882 54.3021 11.2474 53.796C11.2474 53.7708 11.2361 53.7457 11.2293 53.7205C11.09 53.1976 10.9636 52.6717 10.8501 52.1427C10.8452 52.1238 10.8414 52.1047 10.8388 52.0855C10.7268 51.5672 10.6276 51.0458 10.5413 50.5214C10.5413 50.4779 10.5254 50.4345 10.5186 50.391C10.4399 49.9016 10.3711 49.4115 10.312 48.9206C10.2984 48.8246 10.2871 48.7285 10.278 48.6325C10.228 48.2003 10.1894 47.7681 10.1554 47.3336C10.144 47.1575 10.1304 46.9814 10.1213 46.8031C10.0986 46.4509 10.085 46.0988 10.0736 45.7466C10.0736 45.4676 10.06 45.1886 10.0577 44.9096C10.0555 44.6307 10.0577 44.3997 10.0577 44.1436C10.0577 43.7503 10.0782 43.3569 10.0963 42.9636C10.0963 42.8127 10.11 42.664 10.1191 42.5063C10.1508 42.0009 10.1917 41.4909 10.2462 40.9833L10.2598 40.8346C10.3257 40.2538 10.4006 39.6707 10.4869 39.0876C10.673 37.9213 10.9137 36.7779 11.2088 35.6574C11.2202 35.6185 11.2293 35.5797 11.2383 35.5408C11.3564 35.0834 11.4904 34.6535 11.6243 34.2145C11.672 34.0635 11.7129 33.9103 11.7628 33.7571C11.8604 33.4553 11.9671 33.1603 12.0738 32.8607C12.1805 32.5611 12.2714 32.289 12.3803 32.0032C12.4439 31.8431 12.5098 31.6853 12.5733 31.523C12.7391 31.1113 12.9071 30.6997 13.0887 30.2904L13.1636 30.128C13.6343 29.0868 14.158 28.06 14.7347 27.0478C14.738 27.0414 14.7418 27.0352 14.7461 27.0295C15.0321 26.531 15.3296 26.0439 15.6338 25.566C15.6747 25.5019 15.7178 25.4379 15.7609 25.3739C16.0213 24.9714 16.2899 24.5758 16.5669 24.187C16.6668 24.043 16.7712 23.9035 16.8757 23.7617C17.0921 23.4675 17.3108 23.1771 17.5318 22.8904C17.7044 22.6618 17.8792 22.4514 18.0563 22.2364C18.1743 22.0924 18.2947 21.9506 18.4127 21.8111L28.0005 40.7912L28.0414 40.7752L52.516 89.2544C53.7979 89.0868 55.0692 88.8447 56.3234 88.5295L56.4188 88.5021L56.5232 88.4792C56.5595 88.4792 56.5913 88.4564 56.6276 88.4449L56.9341 88.358C57.1998 88.2849 57.4609 88.2117 57.7152 88.1294L57.9422 88.0562C58.1057 88.0059 58.2759 87.9579 58.4371 87.9053C59.3453 87.6156 60.2428 87.3008 61.1298 86.9608C61.1309 86.9677 61.1309 86.9746 61.1298 86.9814C61.4022 86.8762 61.6701 86.7527 61.9403 86.6475L62.3694 86.4715C62.794 86.2908 63.2185 86.1056 63.6386 85.9135C63.8406 85.8197 64.0404 85.7283 64.2402 85.6322C64.5989 85.4615 64.9569 85.2854 65.3141 85.104C65.5775 84.9714 65.8363 84.8341 66.0928 84.6969C66.388 84.5391 66.6809 84.3814 66.9737 84.2167C67.2666 84.0521 67.5095 83.908 67.7775 83.7594C67.9069 83.6839 68.0295 83.6016 68.1566 83.5307L68.6107 83.2517L69.1874 82.8904C69.4394 82.728 69.6891 82.5611 69.9389 82.3942L70.2226 82.2044C70.318 82.1404 70.4134 82.0809 70.5064 82.0169C70.9 81.744 71.2897 81.465 71.6757 81.1799L72.0435 80.9032C72.4794 80.5739 72.9108 80.2355 73.3376 79.8879L73.6713 79.6112C74.0891 79.2636 74.5015 78.9076 74.9087 78.5433L75.0926 78.3832C75.2424 78.2483 75.3877 78.1111 75.5467 77.9739C75.7465 77.7864 75.9485 77.5988 76.146 77.4068C76.5138 77.0546 76.8726 76.6956 77.2267 76.332C77.3039 76.2497 77.3834 76.1719 77.4538 76.0896C80.5027 72.9149 83.0715 69.3059 85.0777 65.3784C85.2253 65.088 85.3706 64.7953 85.5113 64.5003C85.5431 64.4317 85.5772 64.3654 85.609 64.2968C85.7134 64.0681 85.8156 63.8554 85.9177 63.6313L86.1107 63.206C86.1743 63.0619 86.2356 62.9156 86.2992 62.7715C86.3922 62.5428 86.4853 62.3347 86.5761 62.1152L86.6579 61.9117C88.8792 56.4425 90.0146 50.5878 89.9999 44.6787L79.9512 44.6741ZM63.5205 74.6009C63.3343 74.7175 63.1436 74.8296 62.9552 74.9439C62.7054 75.0971 62.4534 75.2458 62.1969 75.3898C61.9857 75.511 61.7746 75.6185 61.5612 75.7443C61.3478 75.8701 61.0753 76.0027 60.8301 76.1285C60.5849 76.2542 60.3874 76.3571 60.1649 76.4623C59.9015 76.5904 59.6336 76.7116 59.3634 76.8328C59.1614 76.9243 58.9593 77.0203 58.755 77.1095C58.4598 77.2375 58.1556 77.3542 57.8468 77.4754L26.2887 14.96C28.1365 13.788 30.0892 12.7927 32.1212 11.9872L63.6794 74.498L63.5205 74.6009Z" fill="white"/>
</svg>
