<svg width="82" height="82" viewBox="0 0 82 82" fill="none" xmlns="http://www.w3.org/2000/svg">
<circle cx="41" cy="41" r="41" fill="white"/>
<path d="M60.2524 40.8197C60.2524 41.2532 60.2379 41.687 60.209 42.1214C60.195 42.3339 60.1797 42.5464 60.1581 42.7538C60.1504 42.8411 60.1402 42.9271 60.13 43.0132C60.1045 43.2417 60.0752 43.4707 60.0421 43.7L60.0077 43.9164C59.9695 44.1542 59.927 44.392 59.8802 44.6298C59.8675 44.6956 59.8535 44.7563 59.8395 44.8284C59.7898 45.0662 59.7362 45.304 59.6763 45.5406C59.6598 45.6102 59.6407 45.6785 59.6228 45.748C59.5629 45.977 59.4954 46.2047 59.4317 46.4324C59.4074 46.5134 59.382 46.5943 59.3552 46.6765C59.2889 46.8865 59.2201 47.0965 59.1462 47.309C59.1105 47.4115 59.0723 47.514 59.0341 47.6164C58.9652 47.7998 58.8951 47.982 58.8212 48.1642C58.7677 48.2906 58.7116 48.4247 58.6556 48.555C58.5906 48.7056 58.5281 48.8548 58.4555 49.0041C58.3828 49.1534 58.3 49.3292 58.2184 49.4911C58.1624 49.605 58.1063 49.7175 58.0477 49.8301C57.944 50.0275 57.837 50.2227 57.7265 50.4158C57.6832 50.493 57.6399 50.5701 57.5991 50.646C57.4717 50.8699 57.3302 51.0913 57.1888 51.3127L57.0983 51.4544C56.9428 51.6922 56.7797 51.9275 56.6115 52.1615L56.5439 52.2576C56.3757 52.4878 56.1998 52.7155 56.0201 52.9407C55.9883 52.9812 55.9577 53.0217 55.9258 53.0672C55.8111 53.2089 55.6939 53.3455 55.5754 53.4834L55.5614 53.4998L39.0976 21.3353C38.2293 19.5921 37.3611 17.8494 36.4928 16.1071C35.983 16.1919 35.4542 16.2956 34.8973 16.4259C34.6335 16.4866 34.3773 16.5524 34.1326 16.6169H34.1122H34.0982L34.0664 16.6245C33.7834 16.7004 33.5095 16.7788 33.2469 16.8585C28.5028 18.2947 24.2912 21.089 21.1403 24.8911C21.0753 24.9695 21.0129 25.0492 20.9428 25.1289L20.9198 25.158C19.3178 27.1391 18.0307 29.3519 17.1031 31.7195C17.1031 31.7308 17.0941 31.741 17.0903 31.7523C17.033 31.9003 16.9756 32.0483 16.9208 32.1976C16.8915 32.2786 16.8609 32.3595 16.8316 32.4418L16.7501 32.6732C16.6965 32.8276 16.6443 32.9819 16.5946 33.1375C16.5919 33.1436 16.5898 33.15 16.5882 33.1565C15.7984 35.5846 15.3892 38.1189 15.375 40.6704C15.375 40.7969 15.375 40.9133 15.375 41.0347C15.3992 44.5484 16.1713 48.0173 17.6409 51.214L17.66 51.257C17.716 51.3835 17.7747 51.4999 17.832 51.6201C17.8702 51.6998 17.9072 51.7782 17.9467 51.8566C17.9735 51.9135 18.0028 51.9692 18.0308 52.0249C20.7946 57.5327 25.5043 61.8379 31.2614 64.1193L31.3341 64.1471C31.555 64.2315 31.7776 64.3158 32.0019 64.4001L32.2414 64.4849C32.3485 64.5228 32.4568 64.5608 32.5651 64.5962C32.7397 64.6544 32.9143 64.7113 33.0902 64.7657L33.3234 64.8365C33.5031 64.8897 33.6828 64.9415 33.8637 64.9921L33.9975 65.0288C34.204 65.0845 34.413 65.1376 34.622 65.1882L34.7749 65.2249C34.9916 65.2755 35.2095 65.3248 35.4274 65.3704L35.4949 65.3843C35.9843 65.4855 36.4779 65.5698 36.9758 65.6373C38.2865 65.8245 39.6099 65.9091 40.934 65.8903L37.9762 60.1169C37.6321 60.0697 37.2922 60.0149 36.9567 59.9525L36.7375 59.9095L36.4074 59.8399L36.0136 59.7501L35.7294 59.6792C35.6326 59.6552 35.537 59.6299 35.4414 59.6033L35.1598 59.5249L34.9865 59.4756C34.6704 59.382 34.3595 59.2795 34.0523 59.1707H34.0447L33.9861 59.1492C33.8497 59.1011 33.7159 59.0505 33.5808 58.9987C33.4304 58.9405 33.2788 58.8823 33.1297 58.8216H33.122L33.0889 58.8077C32.7843 58.6812 32.4836 58.5471 32.1879 58.4079L32.128 58.3788C31.8655 58.2523 31.6081 58.1258 31.3532 57.9867L31.1506 57.8766C31.0512 57.8222 30.9543 57.764 30.8562 57.7084V57.716L30.8218 57.697L30.7899 57.678C30.5032 57.5123 30.2241 57.3415 29.9488 57.1645L29.8928 57.1278C29.6489 56.9701 29.4102 56.8073 29.1766 56.6395L28.9905 56.5041C28.807 56.3701 28.6269 56.2334 28.4502 56.0943C28.3444 56.0121 28.2399 55.9273 28.1367 55.8413C28.0092 55.7363 27.8818 55.6313 27.7607 55.525C27.6397 55.4188 27.4804 55.2796 27.344 55.1544L27.1031 54.9305C26.9362 54.7724 26.7718 54.613 26.6112 54.4498L26.471 54.3056C26.2901 54.1171 26.1117 53.9261 25.9384 53.7313C25.9116 53.7022 25.8861 53.6719 25.8606 53.6428C25.6758 53.4328 25.4949 53.219 25.3203 53.0027L25.268 52.9369C25.0909 52.7155 24.9188 52.4916 24.7583 52.2627L24.6984 52.1817C24.5404 51.9616 24.3866 51.7385 24.2371 51.5125L24.1466 51.3747C24.0128 51.1685 23.884 50.961 23.7579 50.751C23.712 50.6739 23.6674 50.5954 23.6215 50.517C23.5183 50.3374 23.4176 50.1578 23.3195 49.9756C23.2558 49.8567 23.1921 49.7365 23.1334 49.6163C23.0608 49.4734 22.9882 49.3305 22.9193 49.1862C22.8403 49.0205 22.7639 48.8536 22.69 48.6866C22.6441 48.5841 22.5995 48.4817 22.5549 48.3792C22.4657 48.1684 22.3807 47.9575 22.3 47.7467L22.2274 47.5557C22.1356 47.3027 22.0477 47.0497 21.9661 46.7967C21.9559 46.7638 21.9444 46.7322 21.9342 46.6993C21.8493 46.4235 21.7673 46.1457 21.6883 45.8657C21.6883 45.8518 21.6819 45.8379 21.6781 45.8239C21.5999 45.5347 21.529 45.2437 21.4653 44.9511C21.4625 44.9407 21.4604 44.9301 21.4589 44.9195C21.396 44.6328 21.3404 44.3443 21.292 44.0542C21.292 44.0302 21.283 44.0062 21.2792 43.9821C21.235 43.7114 21.1964 43.4403 21.1632 43.1688C21.1556 43.1156 21.1492 43.0625 21.1441 43.0094C21.1161 42.7703 21.0944 42.5312 21.0753 42.2909C21.0689 42.1935 21.0613 42.0961 21.0562 41.9974C21.0434 41.8026 21.0358 41.6078 21.0294 41.413C21.0294 41.2586 21.0218 41.1043 21.0205 40.95C21.0192 40.7957 21.0205 40.6679 21.0205 40.5262C21.0205 40.3086 21.032 40.0911 21.0422 39.8735C21.0422 39.79 21.0498 39.7078 21.0549 39.6205C21.0728 39.3409 21.0957 39.0588 21.1263 38.778L21.1339 38.6958C21.1709 38.3745 21.2129 38.0519 21.2614 37.7294C21.3659 37.0842 21.501 36.4517 21.6666 35.8319C21.673 35.8104 21.6781 35.7889 21.6832 35.7674C21.7495 35.5144 21.8246 35.2766 21.8998 35.0337C21.9266 34.9502 21.9495 34.8655 21.9776 34.7807C22.0324 34.6137 22.0923 34.4505 22.1522 34.2848C22.2121 34.1191 22.263 33.9686 22.3242 33.8105C22.3599 33.7219 22.3968 33.6346 22.4325 33.5448C22.5256 33.3171 22.6199 33.0894 22.7218 32.863L22.7639 32.7732C23.0281 32.1972 23.322 31.6292 23.6457 31.0693C23.6476 31.0657 23.6497 31.0623 23.6521 31.0591C23.8127 30.7834 23.9796 30.5139 24.1504 30.2496C24.1733 30.2141 24.1975 30.1787 24.2218 30.1433C24.3679 29.9207 24.5187 29.7018 24.6742 29.4868C24.7302 29.4071 24.7889 29.3299 24.8475 29.2515C24.969 29.0887 25.0917 28.9281 25.2158 28.7695C25.3126 28.643 25.4108 28.5267 25.5102 28.4077C25.5764 28.3281 25.644 28.2496 25.7102 28.1725L31.092 38.6718L31.1149 38.6629L44.8527 65.4804C45.5723 65.3877 46.2859 65.2538 46.9899 65.0794L47.0434 65.0642L47.102 65.0516C47.1224 65.0516 47.1402 65.0389 47.1606 65.0326L47.3327 64.9845C47.4818 64.9441 47.6283 64.9036 47.7711 64.858L47.8985 64.8176C47.9903 64.7897 48.0858 64.7632 48.1763 64.7341C48.6861 64.5738 49.1899 64.3997 49.6877 64.2116C49.6883 64.2154 49.6883 64.2192 49.6877 64.223C49.8407 64.1648 49.991 64.0965 50.1427 64.0383L50.3835 63.9409C50.6219 63.841 50.8602 63.7385 51.0959 63.6323C51.2094 63.5804 51.3215 63.5298 51.4336 63.4767C51.635 63.3822 51.8359 63.2848 52.0364 63.1845C52.1843 63.1111 52.3295 63.0352 52.4735 62.9593C52.6392 62.872 52.8036 62.7847 52.968 62.6937C53.1324 62.6026 53.2687 62.5229 53.4191 62.4407C53.4918 62.3989 53.5606 62.3534 53.6319 62.3142L53.8868 62.1598L54.2105 61.96C54.352 61.8702 54.4922 61.7778 54.6323 61.6855L54.7916 61.5805C54.8452 61.5451 54.8987 61.5122 54.9509 61.4768C55.1718 61.3258 55.3906 61.1715 55.6072 61.0138L55.8137 60.8607C56.0584 60.6786 56.3005 60.4913 56.5401 60.2991L56.7274 60.146C56.9619 59.9537 57.1934 59.7568 57.422 59.5553L57.5252 59.4667C57.6093 59.3921 57.6909 59.3162 57.7801 59.2403C57.8922 59.1366 58.0056 59.0328 58.1165 58.9266C58.3229 58.7318 58.5243 58.5332 58.7231 58.332C58.7664 58.2865 58.811 58.2435 58.8505 58.1979C60.5619 56.4418 62.0038 54.4454 63.1299 52.2728C63.2128 52.1121 63.2943 51.9502 63.3733 51.787C63.3912 51.7491 63.4103 51.7124 63.4281 51.6745C63.4867 51.548 63.5441 51.4303 63.6014 51.3063L63.7098 51.0711C63.7454 50.9914 63.7799 50.9104 63.8155 50.8307C63.8678 50.7042 63.92 50.5891 63.971 50.4677L64.0169 50.3551C65.2637 47.3297 65.901 44.091 65.8928 40.8222L60.2524 40.8197ZM51.0297 57.3744C50.9252 57.439 50.8181 57.5009 50.7123 57.5642C50.5722 57.6489 50.4307 57.7312 50.2867 57.8109C50.1682 57.8779 50.0497 57.9374 49.9299 58.0069C49.8101 58.0765 49.6572 58.1499 49.5195 58.2194C49.3819 58.289 49.271 58.3459 49.1461 58.4041C48.9983 58.475 48.8479 58.542 48.6963 58.6091C48.5828 58.6597 48.4694 58.7128 48.3547 58.7621C48.1891 58.833 48.0183 58.8975 47.845 58.9645L30.1311 24.3826C31.1683 23.7343 32.2644 23.1837 33.405 22.7381L51.1189 57.3175L51.0297 57.3744Z" fill="#003399"/>
</svg>
