<svg width="76" height="19" viewBox="0 0 76 19" fill="none" xmlns="http://www.w3.org/2000/svg">
<path d="M10.4971 12.4513C10.7461 12.37 10.9908 12.2762 11.2304 12.1703C12.3857 11.6551 13.2744 10.915 13.8967 9.94997C14.5191 8.98491 14.8302 7.83466 14.8302 6.4992C14.8302 5.12826 14.5191 3.95991 13.8967 2.99414C13.2744 2.02838 12.3857 1.28756 11.2304 0.771687C10.0759 0.257229 8.6954 0 7.08887 0H0V18.9462H2.00106V12.9409H7.08887C7.59923 12.9421 8.10922 12.9137 8.61628 12.8558L12.9356 18.9505H15.1283L10.4971 12.4513ZM7.03459 11.2358H2.00106V1.73603H7.03459C8.92992 1.73603 10.3693 2.15079 11.3528 2.98031C12.3363 3.80983 12.8277 4.98279 12.827 6.4992C12.827 7.99645 12.3356 9.16054 11.3528 9.99148C10.37 10.8224 8.93063 11.2372 7.03459 11.2358Z" fill="#003399"/>
<path d="M29.1825 8.12667C28.6284 7.08723 27.7958 6.22259 26.7781 5.6296C25.7598 5.03638 24.5957 4.73977 23.2858 4.73977C22.0615 4.723 20.8557 5.03981 19.7978 5.65621C18.77 6.25641 17.9241 7.12372 17.3496 8.16606C16.7564 9.23045 16.4598 10.4524 16.4598 11.8318C16.4598 13.2113 16.7699 14.4375 17.3901 15.5104C18.0001 16.5726 18.8914 17.4459 19.9659 18.0341C21.0644 18.645 22.3395 18.9505 23.7914 18.9505C24.8427 18.9629 25.8858 18.7642 26.8589 18.3662C27.7609 17.9961 28.5588 17.4115 29.1836 16.6631L28.1192 15.4412C27.6065 16.0482 26.9552 16.5228 26.2203 16.8249C25.4651 17.1304 24.6571 17.2841 23.8425 17.2773C22.7624 17.2773 21.8017 17.0513 20.9601 16.5993C20.1408 16.1687 19.4598 15.5157 18.9952 14.7153C18.593 14.0116 18.3578 13.2251 18.3076 12.4162H30.0319C30.0319 12.3098 30.0319 12.2086 30.0457 12.1107C30.0596 12.0128 30.0585 11.9202 30.0585 11.8318C30.0585 10.4332 29.7665 9.19817 29.1825 8.12667ZM18.3204 11.0091C18.377 10.2655 18.5841 9.54128 18.9292 8.88027C19.3344 8.10445 19.9516 7.45962 20.7089 7.02077C21.4928 6.5725 22.3828 6.34311 23.2858 6.35659C24.1889 6.33872 25.0797 6.56842 25.8616 7.02077C26.6067 7.46524 27.2174 8.10346 27.6285 8.86749C27.9868 9.52773 28.2005 10.2567 28.2554 11.0059L18.3204 11.0091Z" fill="#003399"/>
<path d="M45.0239 7.39435C44.5667 6.53419 43.8547 5.83639 42.9856 5.39648C42.1192 4.95866 41.114 4.73975 39.9702 4.73975C38.6113 4.73975 37.4405 5.03033 36.4577 5.61149C35.6949 6.05104 35.0579 6.67926 34.6077 7.43586V4.87386H32.7834V18.9505H34.6865V11.5497C34.6865 10.4783 34.8877 9.56217 35.29 8.80148C35.6736 8.06125 36.2716 7.45398 37.0058 7.05906C37.7481 6.65672 38.6194 6.45555 39.62 6.45555C40.9611 6.45555 42.0024 6.83554 42.744 7.59552C43.4855 8.3555 43.8552 9.47701 43.8531 10.9601V18.9505H45.7573V10.777C45.7573 9.41599 45.5128 8.28844 45.0239 7.39435Z" fill="#003399"/>
<path d="M59.4135 4.73975L54.017 16.8515L48.695 4.73975H46.6918L52.9984 18.9505H54.975L61.3081 4.73975H59.4135Z" fill="#003399"/>
<path d="M74.4013 11.7892C74.4013 11.9137 74.4013 12.0372 74.3895 12.1607C74.3895 12.2214 74.381 12.282 74.3746 12.3427C74.3746 12.3672 74.3746 12.3917 74.3672 12.4161C74.3597 12.4821 74.3512 12.5471 74.3417 12.612L74.3321 12.6737C74.3214 12.7418 74.3097 12.81 74.2959 12.877C74.2959 12.8962 74.2884 12.9153 74.2852 12.9345C74.2703 13.0016 74.2554 13.0697 74.2384 13.1378C74.2384 13.157 74.2288 13.1772 74.2235 13.1963C74.2065 13.2623 74.1884 13.3273 74.1692 13.3922C74.1628 13.4145 74.1554 13.438 74.1479 13.4614C74.1288 13.521 74.1096 13.5816 74.0883 13.6402C74.0787 13.67 74.067 13.6987 74.0564 13.7285C74.0372 13.7807 74.017 13.835 73.9968 13.885L73.9489 13.9914C73.9308 14.034 73.9127 14.0766 73.8925 14.1192C73.8722 14.1617 73.8488 14.2118 73.8254 14.2575L73.7775 14.3544C73.7477 14.4108 73.7179 14.4662 73.686 14.5215L73.6498 14.5875C73.6125 14.6514 73.5732 14.7142 73.5327 14.777L73.5072 14.8174C73.4635 14.8855 73.4167 14.9526 73.3699 15.0196L73.3507 15.0473C73.3028 15.1133 73.2528 15.1782 73.2017 15.2421L73.1751 15.2762C73.1431 15.3166 73.1091 15.356 73.0761 15.3954L68.413 6.22135L67.6753 4.7312C67.5316 4.75568 67.3805 4.78548 67.223 4.82274C67.1485 4.83977 67.0761 4.85786 67.0101 4.87702H67.0005H66.992C66.9111 4.89831 66.8345 4.92066 66.76 4.94301C65.4165 5.35231 64.2239 6.14915 63.3315 7.23359L63.2751 7.30172L63.2687 7.31023C62.815 7.87501 62.4506 8.5061 62.1884 9.18144V9.19102L62.1405 9.31768L62.1149 9.38793L62.0926 9.45392L62.0479 9.58591V9.60613C61.8238 10.2984 61.7079 11.0211 61.7041 11.7488V11.8552C61.7103 12.8576 61.9279 13.8474 62.3427 14.7599V14.7716C62.3587 14.8068 62.3747 14.8408 62.3917 14.8781L62.4236 14.9462L62.4481 14.9941C63.2305 16.5632 64.5624 17.7898 66.1905 18.4406L66.2118 18.4491L66.4002 18.5204L66.4683 18.5449L66.5599 18.5769L66.7089 18.6248L66.7749 18.645L66.9281 18.6897L66.9654 18.7003C67.0239 18.7163 67.0835 18.7312 67.1421 18.745L67.1857 18.7557L67.3709 18.7972H67.3901C67.5285 18.8259 67.6679 18.8504 67.8095 18.8706C68.1805 18.9247 68.5553 18.9492 68.9303 18.9441L68.0926 17.2975C67.9957 17.2836 67.8989 17.2687 67.8031 17.2506L67.7413 17.2378L67.6477 17.2187L67.5412 17.1921L67.4603 17.1729L67.3794 17.1506L67.2996 17.1282L67.2506 17.1144C67.1612 17.0878 67.0729 17.058 66.9856 17.0271H66.9696C66.9303 17.0133 66.893 16.9984 66.8547 16.9835L66.727 16.9324H66.7174C66.6312 16.8962 66.546 16.8579 66.463 16.8185L66.446 16.81C66.3715 16.7738 66.298 16.7365 66.2267 16.7035L66.1692 16.6716C66.1405 16.6567 66.1128 16.6397 66.0851 16.6237L66.0756 16.6184H66.067C65.9861 16.5715 65.9063 16.5226 65.8286 16.4715L65.8126 16.4619C65.7435 16.4161 65.6764 16.3693 65.6104 16.3225L65.5572 16.2831C65.505 16.2448 65.4508 16.2064 65.4039 16.1671L65.3156 16.0947L65.2091 16.0042C65.1687 15.9701 65.1293 15.9347 65.091 15.8978L65.0229 15.8339C64.976 15.7892 64.9292 15.7434 64.8834 15.6966L64.8441 15.6551C64.7919 15.6019 64.7376 15.5486 64.6929 15.4922L64.6706 15.4667C64.6184 15.4071 64.5641 15.3454 64.5183 15.2836L64.5034 15.2655C64.4534 15.2017 64.4045 15.1378 64.3576 15.0729C64.3512 15.0654 64.3459 15.0569 64.3406 15.0494C64.2959 14.9867 64.2522 14.9238 64.2097 14.8589L64.1841 14.8195C64.1469 14.761 64.1096 14.7014 64.0777 14.6418C64.0638 14.6194 64.0511 14.5971 64.0383 14.5747C64.0096 14.5236 63.9808 14.4683 63.9532 14.4204C63.9351 14.3863 63.918 14.3523 63.901 14.3139C63.884 14.2756 63.8595 14.232 63.8403 14.1905C63.8212 14.149 63.7956 14.0957 63.7754 14.0489C63.7616 14.0191 63.7488 13.9904 63.7371 13.9606C63.7115 13.901 63.6871 13.8403 63.6647 13.7796C63.6573 13.7605 63.6509 13.7424 63.6434 13.7243C63.6179 13.654 63.5923 13.5816 63.57 13.5114L63.5604 13.4837C63.5359 13.405 63.5125 13.3251 63.4912 13.2453V13.2336C63.4689 13.1506 63.4486 13.0686 63.4305 12.9845V12.9749C63.4124 12.8941 63.3965 12.811 63.3826 12.7291V12.7078C63.3699 12.6311 63.3592 12.5534 63.3496 12.4757C63.3496 12.4608 63.3496 12.4459 63.3443 12.431C63.3369 12.3629 63.3305 12.2937 63.3252 12.2256L63.3188 12.1426C63.3188 12.0862 63.3134 12.0361 63.3113 11.9755C63.3092 11.9148 63.3113 11.8871 63.3113 11.8435V11.7136C63.3113 11.6519 63.3113 11.5902 63.3177 11.5274C63.3177 11.5039 63.3177 11.4805 63.3177 11.4561C63.3177 11.3762 63.3294 11.2964 63.3379 11.2166C63.3374 11.2088 63.3374 11.2009 63.3379 11.1931C63.3475 11.1016 63.3603 11.009 63.3752 10.9175C63.4039 10.7333 63.4433 10.5524 63.4891 10.3757C63.4891 10.3704 63.4891 10.364 63.4891 10.3576C63.5072 10.2873 63.5285 10.2171 63.5497 10.1447L63.5721 10.0734C63.5881 10.0255 63.6051 9.97867 63.6211 9.93184C63.637 9.885 63.653 9.84136 63.67 9.79666C63.6807 9.77111 63.6913 9.74663 63.7009 9.72108C63.7275 9.65616 63.7541 9.59123 63.7828 9.5263C63.7872 9.51799 63.7911 9.50947 63.7946 9.50076C63.8691 9.33684 63.9521 9.17399 64.0447 9.01433C64.0905 8.93663 64.1373 8.85999 64.1863 8.78442L64.2065 8.75355C64.248 8.68969 64.2906 8.62795 64.3342 8.56622L64.3832 8.49916C64.4183 8.45233 64.4524 8.40656 64.4896 8.36185C64.5269 8.31715 64.5439 8.29267 64.5726 8.25541L64.629 8.18836L66.1533 11.1857H66.1596L70.0372 18.8376C70.2412 18.8111 70.4434 18.7727 70.6429 18.7227H70.6578H70.6748L70.6908 18.7174L70.7397 18.7035C70.7812 18.6918 70.8228 18.6812 70.8632 18.6684L70.9015 18.6567L70.9803 18.6333C71.1261 18.5875 71.2687 18.5385 71.406 18.4843L71.5348 18.431L71.603 18.4034C71.67 18.3746 71.7381 18.3459 71.8041 18.315L71.8999 18.2714L72.0713 18.1873L72.1948 18.1234L72.3342 18.0479L72.4619 17.9744L72.5226 17.9382L72.595 17.8935L72.6865 17.8371L72.8057 17.7583L72.8515 17.7285L72.8962 17.6987C72.959 17.6562 73.0207 17.6125 73.0825 17.5667L73.14 17.5231C73.2102 17.4709 73.2783 17.4167 73.3464 17.3624L73.3997 17.3187C73.4657 17.2645 73.5306 17.2123 73.5955 17.1506C73.6051 17.1421 73.6157 17.1346 73.6253 17.125L73.6956 17.0612L73.7903 16.9717C73.8488 16.9153 73.9063 16.8589 73.9627 16.8014L74 16.7631C74.4872 16.2587 74.8968 15.6848 75.2155 15.0601C75.24 15.0143 75.2624 14.9686 75.2847 14.9217L75.3007 14.8898C75.3177 14.8547 75.3337 14.8195 75.3496 14.7834L75.3805 14.7163C75.3901 14.6939 75.3997 14.6705 75.4103 14.6482C75.4209 14.6258 75.4401 14.579 75.4539 14.5417C75.4539 14.5311 75.4625 14.5204 75.4678 14.5098C75.8213 13.6468 76.0021 12.7229 76 11.7903L74.4013 11.7892ZM71.7892 16.5119C71.7594 16.5311 71.7286 16.5481 71.6988 16.5662C71.669 16.5843 71.6189 16.6141 71.5785 16.6365L71.472 16.6918L71.356 16.7535L71.2496 16.8057L71.1229 16.8642L71.0261 16.9079C70.9792 16.9281 70.9303 16.9473 70.8824 16.9654L65.8755 7.10054C66.1691 6.91535 66.4795 6.75819 66.8025 6.63114L71.818 16.4949L71.7892 16.5119Z" fill="#003399"/>
</svg>
