<svg width="308" height="131" viewBox="0 0 308 131" fill="none" xmlns="http://www.w3.org/2000/svg">
<circle cx="51.5" cy="45.5" r="45.5" fill="#003399"/>
<path d="M72.8654 45.2999C72.8654 45.781 72.8494 46.2625 72.8173 46.7445C72.8018 46.9803 72.7848 47.2161 72.7608 47.4464C72.7523 47.5432 72.741 47.6387 72.7297 47.7341C72.7014 47.9878 72.6688 48.2419 72.6321 48.4964L72.5939 48.7365C72.5515 49.0004 72.5043 49.2643 72.4525 49.5282C72.4383 49.6012 72.4228 49.6686 72.4072 49.7486C72.3521 50.0125 72.2927 50.2765 72.2262 50.539C72.2078 50.6162 72.1866 50.692 72.1668 50.7692C72.1003 51.0233 72.0254 51.276 71.9546 51.5287C71.9278 51.6185 71.8995 51.7084 71.8698 51.7996C71.7963 52.0326 71.7199 52.2657 71.6379 52.5015C71.5983 52.6152 71.5558 52.7289 71.5134 52.8426C71.437 53.0462 71.3592 53.2483 71.2772 53.4505C71.2178 53.5909 71.1556 53.7397 71.0934 53.8843C71.0212 54.0513 70.9519 54.217 70.8713 54.3826C70.7907 54.5483 70.6988 54.7434 70.6083 54.9231C70.5461 55.0494 70.4838 55.1744 70.4188 55.2993C70.3037 55.5183 70.1849 55.735 70.0624 55.9493C70.0143 56.0349 69.9662 56.1205 69.921 56.2048C69.7795 56.4533 69.6225 56.6989 69.4656 56.9446L69.3652 57.1018C69.1926 57.3657 69.0116 57.6268 68.8249 57.8865L68.75 57.9932C68.5633 58.2487 68.3681 58.5014 68.1687 58.7513C68.1333 58.7962 68.0994 58.8411 68.064 58.8917C67.9368 59.0489 67.8066 59.2005 67.6751 59.3535L67.6596 59.3718L49.3888 23.677C48.4252 21.7425 47.4617 19.8085 46.4981 17.875C45.9324 17.9691 45.3455 18.0842 44.7274 18.2288C44.4347 18.2961 44.1504 18.3691 43.8789 18.4407H43.8563H43.8407L43.8053 18.4492C43.4914 18.5334 43.1873 18.6204 42.896 18.7089C37.6311 20.3026 32.9573 23.4036 29.4606 27.6231C29.3885 27.7101 29.3192 27.7986 29.2414 27.887L29.2159 27.9193C27.4381 30.1178 26.0097 32.5734 24.9802 35.2009C24.9802 35.2135 24.9703 35.2248 24.9661 35.2374C24.9024 35.4016 24.8388 35.5659 24.778 35.7315C24.7455 35.8214 24.7115 35.9112 24.679 36.0025L24.5885 36.2594C24.5291 36.4306 24.4711 36.6019 24.4159 36.7746C24.413 36.7814 24.4106 36.7884 24.4089 36.7956C23.5323 39.4903 23.0783 42.3027 23.0625 45.1343C23.0625 45.2747 23.0625 45.4038 23.0625 45.5386C23.0893 49.4379 23.9462 53.2876 25.577 56.8351L25.5983 56.8828C25.6605 57.0232 25.7255 57.1524 25.7892 57.2857C25.8316 57.3742 25.8726 57.4612 25.9165 57.5482C25.9462 57.6114 25.9787 57.6732 26.0098 57.7349C29.077 63.8473 34.3035 68.625 40.6926 71.1568L40.7732 71.1877C41.0183 71.2813 41.2654 71.3749 41.5143 71.4685L41.7801 71.5625C41.8989 71.6046 42.0191 71.6467 42.1394 71.686C42.3331 71.7506 42.5269 71.8138 42.722 71.8742L42.9808 71.9528C43.1803 72.0117 43.3797 72.0693 43.5805 72.1254L43.729 72.1662C43.9581 72.2279 44.19 72.2869 44.422 72.343L44.5917 72.3837C44.8321 72.4399 45.0739 72.4946 45.3158 72.5452L45.3907 72.5606C45.9338 72.6729 46.4816 72.7665 47.0341 72.8414C48.4886 73.0491 49.9574 73.143 51.4268 73.1222L48.1443 66.7151C47.7624 66.6627 47.3853 66.6019 47.0129 66.5326L46.7696 66.4849L46.4033 66.4077L45.9663 66.308L45.651 66.2294C45.5435 66.2027 45.4374 66.1747 45.3313 66.1452L45.0188 66.0582L44.8264 66.0034C44.4757 65.8995 44.1306 65.7858 43.7898 65.6651H43.7813L43.7163 65.6412C43.5649 65.5879 43.4164 65.5317 43.2665 65.4742C43.0996 65.4096 42.9313 65.345 42.7659 65.2776H42.7574L42.7206 65.2622C42.3826 65.1218 42.0488 64.973 41.7207 64.8186L41.6543 64.7863C41.3629 64.6459 41.0773 64.5055 40.7944 64.3511L40.5695 64.229C40.4592 64.1686 40.3517 64.104 40.2428 64.0423V64.0507L40.2047 64.0296L40.1693 64.0086C39.8511 63.8247 39.5414 63.6352 39.2359 63.4386L39.1737 63.3979C38.9031 63.2229 38.6381 63.0423 38.3789 62.8561L38.1724 62.7058C37.9687 62.557 37.7688 62.4054 37.5727 62.251C37.4554 62.1598 37.3394 62.0657 37.2248 61.9702C37.0834 61.8537 36.942 61.7372 36.8076 61.6193C36.6733 61.5014 36.4965 61.347 36.3452 61.208L36.0779 60.9595C35.8926 60.784 35.7102 60.6071 35.532 60.426L35.3764 60.266C35.1756 60.0568 34.9776 59.8449 34.7852 59.6287C34.7555 59.5964 34.7273 59.5627 34.699 59.5304C34.4939 59.2974 34.2931 59.0601 34.0993 58.8201L34.0413 58.7471C33.8448 58.5014 33.6538 58.2529 33.4756 57.9988L33.4092 57.909C33.2338 57.6647 33.0632 57.4172 32.8972 57.1664L32.7968 57.0134C32.6483 56.7845 32.5055 56.5543 32.3655 56.3213C32.3145 56.2357 32.265 56.1486 32.2141 56.0616C32.0996 55.8622 31.9879 55.6629 31.879 55.4608C31.8082 55.3288 31.7375 55.1954 31.6725 55.0621C31.5919 54.9034 31.5112 54.7448 31.4349 54.5848C31.3472 54.4009 31.2623 54.2156 31.1803 54.0303C31.1294 53.9166 31.0799 53.8028 31.0304 53.6891C30.9314 53.4552 30.8371 53.2212 30.7476 52.9872L30.6669 52.7753C30.5651 52.4945 30.4675 52.2137 30.377 51.933C30.3657 51.8965 30.353 51.8614 30.3417 51.8249C30.2474 51.5188 30.1564 51.2105 30.0687 50.8997C30.0687 50.8843 30.0616 50.8689 30.0574 50.8534C29.9707 50.5324 29.8919 50.2095 29.8212 49.8848C29.8182 49.8732 29.8158 49.8615 29.8141 49.8497C29.7444 49.5315 29.6826 49.2114 29.6289 48.8895C29.6289 48.8628 29.619 48.8361 29.6147 48.8095C29.5657 48.5091 29.5228 48.2082 29.486 47.9068C29.4776 47.8479 29.4705 47.7889 29.4648 47.7299C29.4337 47.4646 29.4097 47.1993 29.3885 46.9326C29.3814 46.8245 29.3729 46.7164 29.3672 46.6069C29.3531 46.3907 29.3446 46.1745 29.3375 45.9583C29.3375 45.7871 29.3291 45.6158 29.3276 45.4445C29.3262 45.2733 29.3276 45.1315 29.3276 44.9743C29.3276 44.7328 29.3404 44.4913 29.3517 44.2499C29.3517 44.1572 29.3602 44.066 29.3658 43.9691C29.3856 43.6589 29.4111 43.3458 29.445 43.0342L29.4535 42.9429C29.4945 42.5864 29.5412 42.2284 29.5949 41.8704C29.7109 41.1545 29.8608 40.4526 30.0447 39.7647C30.0517 39.7408 30.0574 39.717 30.0631 39.6931C30.1366 39.4123 30.22 39.1484 30.3035 38.8789C30.3332 38.7862 30.3586 38.6922 30.3897 38.5981C30.4506 38.4128 30.517 38.2317 30.5835 38.0478C30.65 37.8639 30.7065 37.6969 30.7744 37.5214C30.814 37.4231 30.855 37.3263 30.8946 37.2266C30.9979 36.9739 31.1025 36.7212 31.2157 36.4699L31.2623 36.3703C31.5556 35.7311 31.8818 35.1007 32.241 34.4793C32.243 34.4754 32.2454 34.4716 32.2481 34.4681C32.4263 34.1621 32.6115 33.8631 32.801 33.5697C32.8265 33.5303 32.8534 33.491 32.8802 33.4517C33.0424 33.2047 33.2098 32.9618 33.3823 32.7232C33.4445 32.6347 33.5096 32.5491 33.5746 32.462C33.7095 32.2814 33.8457 32.1031 33.9834 31.9272C34.0908 31.7868 34.1997 31.6577 34.3101 31.5257C34.3836 31.4373 34.4586 31.3502 34.5321 31.2646L40.5045 42.9163L40.5299 42.9064L55.7756 72.6673C56.5741 72.5644 57.366 72.4158 58.1473 72.2223L58.2067 72.2055L58.2717 72.1914C58.2944 72.1914 58.3142 72.1774 58.3368 72.1704L58.5277 72.117C58.6932 72.0721 58.8558 72.0272 59.0142 71.9766L59.1557 71.9317C59.2575 71.9008 59.3636 71.8714 59.464 71.8391C60.0297 71.6612 60.5888 71.468 61.1413 71.2593C61.1419 71.2635 61.1419 71.2677 61.1413 71.2719C61.311 71.2073 61.4779 71.1315 61.6462 71.067L61.9134 70.9589C62.1779 70.848 62.4424 70.7343 62.704 70.6163C62.8299 70.5588 62.9543 70.5026 63.0788 70.4437C63.3022 70.3389 63.5252 70.2308 63.7477 70.1194C63.9118 70.038 64.073 69.9537 64.2328 69.8695C64.4167 69.7726 64.5991 69.6758 64.7816 69.5747C64.964 69.4736 65.1153 69.3852 65.2822 69.2939C65.3628 69.2476 65.4392 69.1971 65.5184 69.1536L65.8012 68.9823L66.1605 68.7605C66.3174 68.6608 66.473 68.5583 66.6286 68.4559L66.8054 68.3394C66.8648 68.3 66.9242 68.2635 66.9821 68.2242C67.2273 68.0567 67.4701 67.8854 67.7105 67.7104L67.9396 67.5406C68.2111 67.3384 68.4798 67.1307 68.7457 66.9173L68.9536 66.7474C69.2138 66.534 69.4707 66.3155 69.7244 66.0918L69.8389 65.9936C69.9323 65.9108 70.0228 65.8265 70.1218 65.7423C70.2462 65.6272 70.3721 65.5121 70.4951 65.3941C70.7242 65.178 70.9477 64.9576 71.1683 64.7344C71.2164 64.6838 71.2659 64.6361 71.3097 64.5856C73.209 62.6367 74.8091 60.4211 76.0588 58.0101C76.1507 57.8318 76.2412 57.6521 76.3289 57.471C76.3487 57.4289 76.3699 57.3882 76.3897 57.3461C76.4548 57.2057 76.5184 57.0751 76.5821 56.9376L76.7023 56.6765C76.7419 56.588 76.7801 56.4982 76.8197 56.4097C76.8777 56.2693 76.9356 56.1416 76.9922 56.0068L77.0431 55.8819C78.4268 52.5244 79.1341 48.9303 79.1249 45.3027L72.8654 45.2999ZM62.6305 63.6717C62.5145 63.7433 62.3957 63.812 62.2783 63.8822C62.1228 63.9763 61.9658 64.0675 61.806 64.156C61.6744 64.2304 61.5429 64.2964 61.41 64.3736C61.277 64.4508 61.1073 64.5322 60.9546 64.6094C60.8019 64.6866 60.6788 64.7498 60.5402 64.8144C60.3762 64.893 60.2093 64.9674 60.041 65.0418C59.9151 65.0979 59.7892 65.1569 59.662 65.2117C59.4781 65.2903 59.2886 65.3619 59.0963 65.4363L39.4381 27.0588C40.5892 26.3393 41.8056 25.7283 43.0714 25.2338L62.7295 63.6085L62.6305 63.6717Z" fill="white"/>
<path d="M133.286 52.9099C133.862 52.7211 134.428 52.5034 134.982 52.2575C137.655 51.0613 139.711 49.3429 141.151 47.1022C142.591 44.8615 143.31 42.1908 143.31 39.0901C143.31 35.907 142.591 33.1943 141.151 30.9519C139.711 28.7096 137.655 26.9895 134.982 25.7917C132.311 24.5972 129.117 24 125.4 24H109V67.9901H113.63V54.0467H125.4C126.581 54.0495 127.761 53.9834 128.934 53.849L138.927 68H144L133.286 52.9099ZM125.275 50.0876H113.63V28.0308H125.275C129.66 28.0308 132.99 28.9938 135.265 30.9198C137.541 32.8458 138.678 35.5692 138.676 39.0901C138.676 42.5665 137.539 45.2693 135.265 47.1986C132.992 49.1279 129.661 50.0909 125.275 50.0876Z" fill="#003399"/>
<path d="M176.939 42.8658C175.635 40.4523 173.675 38.4446 171.28 37.0677C168.884 35.6902 166.145 35.0015 163.063 35.0015C160.182 34.9625 157.344 35.6982 154.855 37.1295C152.436 38.5231 150.446 40.537 149.094 42.9573C147.698 45.4288 147 48.2661 147 51.4692C147 54.6723 147.73 57.5195 149.189 60.0108C150.625 62.4773 152.722 64.505 155.25 65.8708C157.835 67.2894 160.836 67.9987 164.252 67.9987C166.726 68.0276 169.181 67.5662 171.471 66.6419C173.593 65.7826 175.471 64.4252 176.941 62.6874L174.436 59.8501C173.23 61.2596 171.697 62.3617 169.968 63.0631C168.191 63.7723 166.29 64.1293 164.373 64.1135C161.831 64.1135 159.57 63.5887 157.59 62.5391C155.662 61.5394 154.059 60.0231 152.966 58.1646C152.02 56.5307 151.466 54.7043 151.348 52.8261H178.937C178.937 52.5789 178.937 52.3441 178.97 52.1168C179.002 51.8894 179 51.6743 179 51.4692C179 48.2216 178.313 45.3538 176.939 42.8658ZM151.378 49.5587C151.511 47.8323 151.999 46.1506 152.811 44.6157C153.764 42.8142 155.217 41.3169 156.999 40.2979C158.843 39.2571 160.938 38.7244 163.063 38.7557C165.188 38.7142 167.284 39.2476 169.124 40.2979C170.877 41.33 172.314 42.812 173.282 44.586C174.125 46.1191 174.628 47.8117 174.757 49.5513L151.378 49.5587Z" fill="#003399"/>
<path d="M213.304 41.1645C212.247 39.167 210.601 37.5466 208.591 36.5251C206.587 35.5084 204.263 35 201.618 35C198.476 35 195.769 35.6748 193.496 37.0243C191.732 38.0451 190.259 39.5039 189.219 41.2609V35.3114H185V68H189.401V50.8141C189.401 48.3259 189.866 46.1986 190.796 44.4321C191.683 42.7132 193.066 41.303 194.764 40.3859C196.48 39.4516 198.495 38.9844 200.809 38.9844C203.91 38.9844 206.318 39.8668 208.032 41.6316C209.747 43.3964 210.602 46.0008 210.597 49.4448V68H215V49.0196C215 45.8591 214.435 43.2407 213.304 41.1645Z" fill="#003399"/>
<path d="M246.593 35L234.04 63.1258L221.66 35H217L231.67 68H236.268L251 35H246.593Z" fill="#003399"/>
<path d="M281.31 51.3868C281.31 51.6759 281.31 51.9626 281.283 52.2492C281.283 52.3901 281.263 52.531 281.248 52.6718C281.248 52.7287 281.248 52.7855 281.231 52.8423C281.214 52.9956 281.194 53.1463 281.172 53.297L281.15 53.4404C281.125 53.5985 281.098 53.7567 281.066 53.9124C281.066 53.9569 281.049 54.0014 281.042 54.0458C281.007 54.2015 280.973 54.3597 280.934 54.5178C280.934 54.5623 280.912 54.6093 280.899 54.6538C280.86 54.807 280.818 54.9577 280.774 55.1085C280.759 55.1604 280.742 55.2147 280.725 55.2691C280.681 55.4075 280.636 55.5484 280.587 55.6843C280.565 55.7535 280.538 55.8202 280.513 55.8894C280.469 56.0105 280.423 56.1365 280.376 56.2527L280.265 56.4998C280.224 56.5986 280.182 56.6975 280.135 56.7963C280.088 56.8952 280.034 57.0113 279.98 57.1176L279.87 57.3425C279.801 57.4734 279.732 57.6019 279.658 57.7304L279.575 57.8837C279.489 58.0319 279.398 58.1777 279.305 58.3236L279.246 58.4175C279.145 58.5756 279.037 58.7313 278.929 58.887L278.884 58.9512C278.774 59.1045 278.658 59.2552 278.54 59.4035L278.479 59.4826C278.405 59.5765 278.327 59.6679 278.251 59.7593L267.486 38.4597L265.784 35C265.452 35.0568 265.103 35.126 264.74 35.2125C264.568 35.2521 264.4 35.2941 264.248 35.3386H264.226H264.206C264.02 35.388 263.843 35.4399 263.671 35.4918C260.57 36.442 257.817 38.2921 255.757 40.8099L255.627 40.968L255.612 40.9878C254.564 42.2991 253.723 43.7643 253.118 45.3322V45.3545L253.007 45.6486L252.948 45.8117L252.897 45.9649L252.794 46.2713V46.3183C252.276 47.9256 252.009 49.6035 252 51.2929V51.54C252.014 53.8673 252.517 56.1653 253.474 58.284V58.3112C253.511 58.3927 253.548 58.4718 253.587 58.5583L253.661 58.7165L253.717 58.8277C255.523 62.4707 258.598 65.3186 262.356 66.8296L262.405 66.8493L262.84 67.0149L262.998 67.0717L263.209 67.1459L263.553 67.2571L263.705 67.304L264.059 67.4078L264.145 67.4325C264.28 67.4696 264.418 67.5042 264.553 67.5363L264.654 67.561L265.081 67.6574H265.125C265.445 67.7241 265.767 67.781 266.093 67.8279C266.95 67.9534 267.815 68.0104 268.681 67.9984L266.747 64.1754C266.523 64.1433 266.3 64.1087 266.079 64.0667L265.936 64.0371L265.72 63.9926L265.474 63.9308L265.287 63.8863L265.101 63.8344L264.916 63.7825L264.803 63.7504C264.597 63.6886 264.393 63.6194 264.192 63.5477H264.155C264.064 63.5156 263.978 63.481 263.889 63.4464L263.595 63.3278H263.572C263.373 63.2438 263.177 63.1548 262.985 63.0634L262.946 63.0436C262.774 62.9596 262.604 62.8731 262.44 62.7965L262.307 62.7224C262.241 62.6878 262.177 62.6482 262.113 62.6111L262.091 62.5988H262.071C261.885 62.4901 261.7 62.3764 261.521 62.2578L261.484 62.2355C261.324 62.1292 261.17 62.0205 261.017 61.9118L260.894 61.8203C260.774 61.7314 260.649 61.6424 260.541 61.551L260.337 61.3829L260.091 61.1729C259.998 61.0938 259.907 61.0114 259.818 60.9258L259.661 60.7775C259.553 60.6737 259.445 60.5674 259.339 60.4587L259.248 60.3623C259.128 60.2388 259.002 60.1152 258.899 59.9842L258.848 59.9249C258.727 59.7865 258.602 59.6432 258.496 59.4999L258.462 59.4578C258.346 59.3096 258.233 59.1613 258.125 59.0105C258.111 58.9932 258.098 58.9735 258.086 58.9562C257.983 58.8104 257.882 58.6646 257.784 58.5138L257.725 58.4224C257.639 58.2865 257.553 58.1481 257.479 58.0097C257.447 57.9578 257.418 57.9059 257.388 57.854C257.322 57.7354 257.256 57.6069 257.192 57.4957C257.15 57.4166 257.111 57.3375 257.071 57.2486C257.032 57.1596 256.975 57.0583 256.931 56.9619C256.887 56.8655 256.828 56.742 256.781 56.6332C256.749 56.564 256.72 56.4973 256.693 56.4281C256.634 56.2897 256.577 56.1489 256.526 56.008C256.509 55.9635 256.494 55.9215 256.477 55.8795C256.418 55.7164 256.359 55.5483 256.307 55.3852L256.285 55.321C256.228 55.1381 256.174 54.9528 256.125 54.7674V54.7403C256.074 54.5475 256.027 54.3572 255.985 54.162V54.1397C255.943 53.9519 255.907 53.7592 255.875 53.5689V53.5195C255.845 53.3415 255.821 53.1611 255.799 52.9807C255.799 52.9461 255.799 52.9115 255.786 52.8769C255.769 52.7188 255.754 52.5581 255.742 52.4L255.727 52.2072C255.727 52.0763 255.715 51.9601 255.71 51.8193C255.705 51.6784 255.71 51.6141 255.71 51.5128V51.2113C255.71 51.068 255.71 50.9247 255.725 50.7789C255.725 50.7245 255.725 50.6701 255.725 50.6133C255.725 50.4279 255.752 50.2426 255.771 50.0573C255.77 50.0392 255.77 50.021 255.771 50.0029C255.794 49.7904 255.823 49.5754 255.857 49.3628C255.924 48.9353 256.015 48.5152 256.12 48.105C256.12 48.0926 256.12 48.0778 256.12 48.063C256.162 47.8999 256.211 47.7368 256.26 47.5687L256.312 47.4031C256.349 47.2919 256.388 47.1832 256.425 47.0745C256.462 46.9657 256.499 46.8644 256.538 46.7606C256.563 46.7013 256.587 46.6445 256.609 46.5852C256.671 46.4344 256.732 46.2837 256.799 46.1329C256.809 46.1136 256.818 46.0938 256.826 46.0736C256.998 45.693 257.189 45.3149 257.403 44.9443C257.509 44.7639 257.617 44.5859 257.73 44.4105L257.776 44.3388C257.872 44.1905 257.97 44.0472 258.071 43.9039L258.184 43.7482C258.265 43.6394 258.344 43.5332 258.43 43.4294C258.516 43.3256 258.555 43.2688 258.622 43.1823L258.752 43.0266L262.27 49.9856H262.285L271.236 67.7513C271.707 67.6898 272.173 67.6007 272.634 67.4844H272.668H272.708L272.744 67.4721L272.857 67.4399C272.953 67.4128 273.049 67.3881 273.142 67.3584L273.231 67.3312L273.413 67.2768C273.749 67.1706 274.079 67.0569 274.396 66.9309L274.693 66.8073L274.85 66.7431C275.005 66.6763 275.162 66.6096 275.314 66.5379L275.536 66.4366L275.931 66.2414L276.216 66.0931L276.538 65.9177L276.833 65.7471L276.973 65.6631L277.14 65.5593L277.351 65.4284L277.627 65.2455L277.732 65.1763L277.835 65.1071C277.98 65.0083 278.123 64.9069 278.265 64.8007L278.398 64.6993C278.56 64.5783 278.717 64.4522 278.875 64.3262L278.998 64.2249C279.15 64.0988 279.3 63.9777 279.45 63.8344C279.472 63.8146 279.496 63.7973 279.518 63.7751L279.681 63.6268L279.899 63.4192C280.034 63.2883 280.167 63.1573 280.297 63.0238L280.383 62.9349C281.508 61.7638 282.454 60.4313 283.189 58.9809C283.246 58.8746 283.297 58.7684 283.349 58.6596L283.386 58.5855C283.425 58.504 283.462 58.4224 283.499 58.3384L283.57 58.1827C283.592 58.1308 283.614 58.0764 283.639 58.0245C283.663 57.9726 283.708 57.8639 283.74 57.7774C283.74 57.7527 283.759 57.728 283.771 57.7033C284.587 55.6996 285.005 53.5545 285 51.3893L281.31 51.3868ZM275.28 62.3517C275.211 62.3962 275.14 62.4357 275.071 62.4777C275.002 62.5197 274.887 62.5889 274.794 62.6408L274.548 62.7693L274.28 62.9126L274.034 63.0337L273.742 63.1696L273.518 63.271C273.41 63.3179 273.297 63.3624 273.187 63.4044L261.629 40.501C262.307 40.071 263.023 39.7061 263.769 39.4112L275.346 62.3121L275.28 62.3517Z" fill="#003399"/>
<path d="M3.78319 118.184C6.0695 118.184 7.57501 119.297 7.57501 121.251C7.57501 122.696 6.76402 123.676 5.31459 124.111L7.57501 127.765H5.72871L3.64515 124.314H1.52277V127.765H0V118.18L3.78319 118.184ZM3.67966 123.007C5.08164 123.007 5.95303 122.351 5.95303 121.32C5.95303 120.289 5.09027 119.647 3.67966 119.647H1.52277V123.007H3.67966Z" fill="#003399"/>
<path d="M11.0175 124.439C11.0574 125.018 11.3203 125.558 11.7507 125.947C12.1812 126.336 12.7457 126.542 13.3254 126.523C13.6896 126.533 14.0502 126.448 14.3712 126.275C14.6921 126.102 14.9622 125.849 15.1544 125.539H16.8799C16.4485 126.967 15.1544 127.886 13.3297 127.886C12.8248 127.892 12.3238 127.797 11.856 127.607C11.3882 127.417 10.963 127.135 10.6052 126.779C10.2473 126.423 9.96408 125.999 9.77194 125.532C9.57979 125.065 9.48262 124.564 9.48609 124.06C9.47076 123.556 9.55809 123.054 9.74278 122.585C9.92746 122.116 10.2056 121.69 10.5604 121.332C10.9151 120.974 11.3389 120.692 11.8061 120.503C12.2733 120.314 12.7741 120.222 13.2779 120.233C15.3399 120.233 16.8584 121.463 17.087 123.438C17.087 123.632 17.087 123.805 17.087 123.956C17.087 124.107 17.087 124.267 17.087 124.439H11.0175ZM15.4262 123.404C15.3695 122.882 15.1133 122.403 14.7113 122.066C14.3093 121.729 13.7926 121.561 13.2693 121.596C12.7449 121.578 12.2317 121.751 11.826 122.084C11.4202 122.417 11.1496 122.886 11.0649 123.404H15.4262Z" fill="#003399"/>
<path d="M18.6658 124.06C18.6611 123.553 18.758 123.05 18.9508 122.582C19.1436 122.113 19.4284 121.688 19.7883 121.331C20.1482 120.974 20.576 120.693 21.0463 120.505C21.5166 120.316 22.02 120.224 22.5266 120.233C23.3684 120.198 24.1958 120.46 24.8638 120.973C25.5318 121.487 25.9979 122.219 26.1804 123.041H24.5584C24.4113 122.625 24.1346 122.267 23.7689 122.019C23.4033 121.771 22.9679 121.647 22.5266 121.665C21.8917 121.665 21.2827 121.918 20.8337 122.367C20.3847 122.816 20.1325 123.425 20.1325 124.06C20.1325 124.694 20.3847 125.303 20.8337 125.752C21.2827 126.201 21.8917 126.454 22.5266 126.454C22.9632 126.471 23.3943 126.351 23.7589 126.111C24.1235 125.87 24.4032 125.52 24.5584 125.112H26.1804C25.9849 125.925 25.5143 126.645 24.8484 127.151C24.1824 127.656 23.3622 127.916 22.5266 127.886C22.0202 127.894 21.5171 127.802 21.047 127.613C20.5769 127.424 20.1494 127.143 19.7896 126.787C19.4298 126.43 19.145 126.005 18.952 125.537C18.759 125.068 18.6617 124.566 18.6658 124.06Z" fill="#003399"/>
<path d="M28.3114 120.371H29.7651V121.903C30.0333 121.388 30.44 120.959 30.9394 120.664C31.4388 120.369 32.0108 120.22 32.5907 120.233V121.799C31.1973 121.799 29.8083 122.701 29.7651 124.318V127.769H28.2985L28.3114 120.371Z" fill="#003399"/>
<path d="M41.3045 127.765H39.8205V126.471C39.5462 126.922 39.1585 127.293 38.696 127.547C38.2336 127.801 37.7125 127.93 37.1848 127.92C35.5887 127.92 34.5966 126.769 34.5966 125.211V120.371H36.0589V124.784C36.0387 125.01 36.068 125.237 36.1447 125.45C36.2215 125.663 36.3439 125.856 36.5033 126.017C36.6628 126.178 36.8554 126.302 37.0678 126.38C37.2801 126.458 37.5071 126.489 37.7327 126.471C38.8715 126.471 39.8335 125.272 39.8335 124.111V120.371H41.3174L41.3045 127.765Z" fill="#003399"/>
<path d="M44.6951 117.235C44.826 117.226 44.9573 117.244 45.0808 117.288C45.2044 117.333 45.3176 117.401 45.4134 117.491C45.5092 117.581 45.5856 117.689 45.6378 117.809C45.6901 117.93 45.717 118.059 45.717 118.191C45.717 118.322 45.6901 118.452 45.6378 118.572C45.5856 118.692 45.5092 118.8 45.4134 118.89C45.3176 118.98 45.2044 119.049 45.0808 119.093C44.9573 119.137 44.826 119.155 44.6951 119.146C44.5642 119.155 44.4329 119.137 44.3094 119.093C44.1858 119.049 44.0726 118.98 43.9768 118.89C43.881 118.8 43.8046 118.692 43.7524 118.572C43.7002 118.452 43.6732 118.322 43.6732 118.191C43.6732 118.059 43.7002 117.93 43.7524 117.809C43.8046 117.689 43.881 117.581 43.9768 117.491C44.0726 117.401 44.1858 117.333 44.3094 117.288C44.4329 117.244 44.5642 117.226 44.6951 117.235ZM43.9532 127.765V120.371H45.4198V127.765H43.9532Z" fill="#003399"/>
<path d="M50.3764 118.124V120.367H52.378V121.661H50.3764V125.401C50.3764 126.298 50.8078 126.54 51.4463 126.54C51.7584 126.532 52.0697 126.503 52.378 126.454V127.799C51.9673 127.866 51.5519 127.901 51.1357 127.903C49.6776 127.903 48.9141 127.329 48.9141 125.608V121.665H47.5509V120.371H48.9141V118.124H50.3764Z" fill="#003399"/>
<path d="M54.5435 120.371H56.0101V121.575C56.2467 121.159 56.5906 120.815 57.0057 120.579C57.4208 120.342 57.8919 120.221 58.3698 120.229C58.8652 120.207 59.3534 120.354 59.7545 120.645C60.1557 120.937 60.4462 121.356 60.5784 121.834C60.8032 121.349 61.1635 120.939 61.6159 120.654C62.0683 120.369 62.5934 120.222 63.1279 120.229C64.6205 120.229 65.5048 121.346 65.5048 122.934V127.761H64.0424V123.352C64.0424 122.248 63.4428 121.665 62.593 121.665C61.5232 121.665 60.8114 122.86 60.7682 124.008V127.765H59.2843V123.352C59.2843 122.248 58.6847 121.665 57.8349 121.665C56.8211 121.665 56.0533 122.882 56.0101 124.008V127.765H54.5435V120.371Z" fill="#003399"/>
<path d="M69.1931 124.439C69.233 125.018 69.4958 125.558 69.9263 125.947C70.3568 126.336 70.9213 126.542 71.5009 126.523C71.8647 126.534 72.2249 126.448 72.5453 126.276C72.8656 126.103 73.1348 125.849 73.3257 125.539H75.0512C74.6198 126.967 73.3257 127.886 71.5009 127.886C70.9961 127.892 70.4951 127.797 70.0273 127.607C69.5595 127.417 69.1343 127.135 68.7764 126.779C68.4186 126.423 68.1353 125.999 67.9432 125.532C67.7511 125.065 67.6539 124.564 67.6574 124.06C67.642 123.556 67.7294 123.054 67.914 122.585C68.0987 122.116 68.3769 121.69 68.7316 121.332C69.0864 120.974 69.5102 120.692 69.9774 120.503C70.4446 120.314 70.9454 120.222 71.4492 120.233C73.5112 120.233 75.0296 121.463 75.2582 123.438C75.2582 123.632 75.2582 123.805 75.2582 123.956C75.2582 124.107 75.2582 124.267 75.2582 124.439H69.1931ZM73.6018 123.404C73.545 122.882 73.2889 122.403 72.8869 122.066C72.4849 121.729 71.9682 121.561 71.4449 121.596C70.9204 121.578 70.4073 121.751 70.0015 122.084C69.5958 122.417 69.3252 122.886 69.2405 123.404H73.6018Z" fill="#003399"/>
<path d="M77.3592 120.371H78.8215V121.665C79.0995 121.215 79.4909 120.846 79.9565 120.595C80.4221 120.343 80.9456 120.219 81.4745 120.233C83.0749 120.233 84.0628 121.342 84.0628 122.938V127.765H82.5788V123.352C82.6002 123.128 82.5724 122.902 82.4974 122.69C82.4224 122.478 82.3021 122.285 82.1447 122.125C81.9874 121.964 81.7969 121.84 81.5865 121.76C81.3761 121.681 81.1509 121.649 80.9267 121.665C79.7404 121.665 78.8517 122.847 78.8043 124.008V127.765H77.3419L77.3592 120.371Z" fill="#003399"/>
<path d="M89.0365 118.124V120.367H91.0209V121.661H89.0365V125.401C89.0365 126.298 89.4679 126.54 90.1063 126.54C90.4185 126.532 90.7298 126.503 91.0381 126.454V127.799C90.6274 127.866 90.2119 127.901 89.7958 127.903C88.3377 127.903 87.5742 127.329 87.5742 125.608V121.665H86.211V120.371H87.5698V118.124H89.0365Z" fill="#003399"/>
<path d="M95.5978 129.4L95.9602 126.316H97.4916L96.7194 129.4H95.5978Z" fill="#003399"/>
<path d="M109.669 127.765H108.203V126.695C107.922 127.094 107.543 127.413 107.102 127.622C106.661 127.831 106.174 127.922 105.688 127.886C103.552 127.886 102.034 126.212 102.034 124.077C102.034 121.941 103.548 120.233 105.688 120.233C106.176 120.195 106.666 120.287 107.108 120.499C107.549 120.711 107.927 121.036 108.203 121.441V120.371H109.669V127.765ZM108.203 123.663C108.135 123.102 107.861 122.587 107.435 122.218C107.008 121.849 106.459 121.652 105.895 121.665C105.262 121.665 104.655 121.917 104.208 122.364C103.761 122.811 103.509 123.418 103.509 124.051C103.509 124.683 103.761 125.29 104.208 125.738C104.655 126.185 105.262 126.436 105.895 126.436C106.45 126.456 106.992 126.27 107.418 125.914C107.844 125.558 108.123 125.057 108.203 124.508V123.663Z" fill="#003399"/>
<path d="M112.076 122.437C112.076 121.061 113.181 120.233 114.975 120.233C116.77 120.233 117.866 121.048 117.887 122.472H116.369C116.347 121.855 115.808 121.493 115.027 121.493C114.108 121.493 113.595 121.79 113.595 122.386C113.595 123.248 114.781 123.421 115.834 123.611C117.033 123.827 118.06 124.344 118.06 125.643C118.06 127.045 117.007 127.886 115.079 127.886C113.077 127.886 111.921 126.989 111.921 125.608H113.453C113.556 126.284 114.108 126.623 115.109 126.626C116.062 126.626 116.537 126.333 116.537 125.763C116.537 124.944 115.364 124.784 114.307 124.594C113.12 124.379 112.072 123.844 112.072 122.437H112.076Z" fill="#003399"/>
<path d="M120.087 122.437C120.087 121.061 121.192 120.233 122.986 120.233C124.781 120.233 125.872 121.048 125.898 122.472H124.379C124.358 121.855 123.819 121.493 123.038 121.493C122.115 121.493 121.606 121.79 121.606 122.386C121.606 123.248 122.792 123.421 123.844 123.611C125.044 123.827 126.07 124.344 126.07 125.643C126.07 127.045 125.018 127.886 123.085 127.886C121.153 127.886 119.932 126.989 119.932 125.608H121.468C121.571 126.284 122.122 126.623 123.12 126.626C124.077 126.626 124.552 126.333 124.552 125.763C124.552 124.944 123.379 124.784 122.322 124.594C121.135 124.379 120.087 123.844 120.087 122.437Z" fill="#003399"/>
<path d="M129.081 117.235C129.212 117.226 129.344 117.244 129.467 117.288C129.591 117.333 129.704 117.401 129.8 117.491C129.896 117.581 129.972 117.689 130.024 117.809C130.076 117.93 130.103 118.059 130.103 118.191C130.103 118.322 130.076 118.452 130.024 118.572C129.972 118.692 129.896 118.8 129.8 118.89C129.704 118.98 129.591 119.049 129.467 119.093C129.344 119.137 129.212 119.155 129.081 119.146C128.951 119.155 128.819 119.137 128.696 119.093C128.572 119.049 128.459 118.98 128.363 118.89C128.267 118.8 128.191 118.692 128.139 118.572C128.086 118.452 128.06 118.322 128.06 118.191C128.06 118.059 128.086 117.93 128.139 117.809C128.191 117.689 128.267 117.581 128.363 117.491C128.459 117.401 128.572 117.333 128.696 117.288C128.819 117.244 128.951 117.226 129.081 117.235ZM128.339 127.765V120.371H129.806V127.765H128.339Z" fill="#003399"/>
<path d="M132.213 122.437C132.213 121.061 133.318 120.233 135.108 120.233C136.898 120.233 137.998 121.048 138.024 122.472H136.505C136.484 121.855 135.94 121.493 135.16 121.493C134.241 121.493 133.732 121.79 133.732 122.386C133.732 123.248 134.918 123.421 135.971 123.611C137.17 123.827 138.192 124.344 138.192 125.643C138.192 127.045 137.144 127.886 135.211 127.886C133.279 127.886 132.058 126.989 132.058 125.608H133.594C133.697 126.284 134.248 126.623 135.246 126.626C136.199 126.626 136.678 126.333 136.678 125.763C136.678 124.944 135.505 124.784 134.443 124.594C133.261 124.379 132.213 123.844 132.213 122.437Z" fill="#003399"/>
<path d="M142.786 118.124V120.367H144.788V121.661H142.786V125.401C142.786 126.298 143.218 126.54 143.856 126.54C144.168 126.532 144.48 126.503 144.788 126.454V127.799C144.377 127.866 143.962 127.901 143.546 127.903C142.088 127.903 141.324 127.329 141.324 125.608V121.665H139.961V120.371H141.324V118.124H142.786Z" fill="#003399"/>
<path d="M154.058 127.765H152.596V126.695C152.315 127.094 151.936 127.413 151.495 127.622C151.055 127.831 150.567 127.922 150.081 127.886C147.946 127.886 146.427 126.212 146.427 124.077C146.427 121.941 147.937 120.233 150.081 120.233C150.569 120.195 151.059 120.287 151.501 120.499C151.942 120.711 152.32 121.036 152.596 121.441V120.371H154.058V127.765ZM152.596 123.663C152.488 123.087 152.17 122.571 151.702 122.218C151.234 121.865 150.652 121.699 150.068 121.753C149.485 121.807 148.942 122.077 148.547 122.51C148.153 122.943 147.934 123.508 147.934 124.094C147.934 124.68 148.153 125.245 148.547 125.678C148.942 126.111 149.485 126.381 150.068 126.435C150.652 126.489 151.234 126.323 151.702 125.97C152.17 125.617 152.488 125.101 152.596 124.525V123.663Z" fill="#003399"/>
<path d="M156.711 120.371H158.174V121.665C158.452 121.214 158.844 120.845 159.31 120.593C159.777 120.342 160.301 120.218 160.831 120.233C162.427 120.233 163.419 121.342 163.419 122.938V127.765H161.935V123.352C161.957 123.128 161.929 122.902 161.854 122.69C161.779 122.478 161.658 122.285 161.501 122.125C161.344 121.964 161.153 121.84 160.943 121.76C160.732 121.681 160.507 121.649 160.283 121.665C159.097 121.665 158.208 122.847 158.161 124.008V127.765H156.698L156.711 120.371Z" fill="#003399"/>
<path d="M165.567 124.059C165.562 123.553 165.659 123.051 165.851 122.582C166.043 122.113 166.328 121.688 166.687 121.331C167.047 120.975 167.474 120.694 167.944 120.505C168.414 120.316 168.918 120.224 169.424 120.233C170.266 120.197 171.094 120.459 171.762 120.972C172.43 121.486 172.896 122.219 173.078 123.041H171.46C171.313 122.624 171.035 122.265 170.669 122.018C170.302 121.77 169.866 121.647 169.424 121.665C168.789 121.665 168.18 121.918 167.731 122.367C167.282 122.816 167.03 123.425 167.03 124.059C167.03 124.694 167.282 125.303 167.731 125.752C168.18 126.201 168.789 126.454 169.424 126.454C169.861 126.472 170.293 126.352 170.658 126.111C171.024 125.87 171.304 125.521 171.46 125.112H173.078C172.883 125.925 172.412 126.646 171.746 127.152C171.08 127.657 170.26 127.917 169.424 127.886C168.916 127.897 168.411 127.806 167.938 127.618C167.466 127.43 167.036 127.15 166.674 126.793C166.312 126.436 166.025 126.011 165.831 125.541C165.636 125.071 165.538 124.568 165.542 124.059H165.567Z" fill="#003399"/>
<path d="M176.248 124.439C176.288 125.018 176.551 125.558 176.982 125.947C177.412 126.336 177.977 126.542 178.556 126.523C178.921 126.533 179.281 126.448 179.602 126.275C179.923 126.102 180.193 125.849 180.385 125.539H182.111C181.679 126.967 180.385 127.886 178.561 127.886C178.056 127.892 177.555 127.797 177.087 127.607C176.619 127.417 176.194 127.135 175.836 126.779C175.478 126.423 175.195 125.999 175.003 125.532C174.811 125.065 174.714 124.564 174.717 124.06C174.702 123.556 174.789 123.054 174.974 122.585C175.158 122.116 175.437 121.69 175.791 121.332C176.146 120.974 176.57 120.692 177.037 120.503C177.504 120.314 178.005 120.222 178.509 120.233C180.571 120.233 182.089 121.463 182.318 123.438C182.318 123.632 182.318 123.805 182.318 123.956C182.318 124.107 182.318 124.267 182.318 124.439H176.248ZM180.657 123.404C180.6 122.882 180.344 122.403 179.942 122.066C179.54 121.729 179.024 121.561 178.5 121.596C177.976 121.578 177.463 121.751 177.057 122.084C176.651 122.417 176.381 122.886 176.296 123.404H180.657Z" fill="#003399"/>
<path d="M194.181 127.765H192.714V126.695C192.434 127.094 192.054 127.413 191.614 127.622C191.173 127.831 190.685 127.922 190.199 127.886C188.064 127.886 186.545 126.212 186.545 124.077C186.545 121.941 188.059 120.233 190.199 120.233C190.688 120.195 191.177 120.287 191.619 120.499C192.061 120.711 192.438 121.036 192.714 121.441V120.371H194.181V127.765ZM192.714 123.663C192.647 123.102 192.373 122.587 191.946 122.218C191.519 121.849 190.97 121.652 190.406 121.665C189.774 121.665 189.167 121.917 188.719 122.364C188.272 122.811 188.021 123.418 188.021 124.051C188.021 124.683 188.272 125.29 188.719 125.738C189.167 126.185 189.774 126.436 190.406 126.436C190.961 126.456 191.503 126.27 191.929 125.914C192.355 125.558 192.635 125.057 192.714 124.508V123.663Z" fill="#003399"/>
<path d="M196.829 120.371H198.296V121.665C198.574 121.215 198.966 120.846 199.431 120.595C199.897 120.343 200.42 120.219 200.949 120.233C202.55 120.233 203.537 121.342 203.537 122.938V127.765H202.058V123.352C202.078 123.128 202.05 122.902 201.975 122.69C201.899 122.478 201.778 122.285 201.621 122.125C201.463 121.964 201.272 121.84 201.062 121.761C200.851 121.681 200.626 121.649 200.401 121.665C199.219 121.665 198.331 122.847 198.283 124.008V127.765H196.817L196.829 120.371Z" fill="#003399"/>
<path d="M209.339 120.233C209.823 120.197 210.308 120.288 210.746 120.497C211.184 120.706 211.56 121.025 211.837 121.424V117.459H213.304V127.765H211.837V126.695C211.56 127.094 211.184 127.413 210.746 127.622C210.308 127.831 209.823 127.922 209.339 127.886C207.204 127.886 205.686 126.212 205.686 124.077C205.686 121.941 207.2 120.233 209.339 120.233ZM211.837 123.594C211.757 123.048 211.48 122.55 211.058 122.195C210.636 121.839 210.098 121.651 209.547 121.665C208.914 121.665 208.307 121.917 207.86 122.364C207.412 122.811 207.161 123.418 207.161 124.051C207.161 124.684 207.412 125.29 207.86 125.738C208.307 126.185 208.914 126.436 209.547 126.436C210.09 126.45 210.62 126.268 211.04 125.923C211.46 125.579 211.743 125.095 211.837 124.56V123.594Z" fill="#003399"/>
<path d="M218.088 124.059C218.083 123.551 218.181 123.047 218.375 122.577C218.569 122.106 218.856 121.68 219.218 121.323C219.58 120.966 220.01 120.686 220.483 120.498C220.956 120.311 221.462 120.221 221.97 120.233C222.81 120.201 223.634 120.465 224.299 120.978C224.965 121.491 225.429 122.221 225.611 123.041H223.989C223.842 122.625 223.565 122.267 223.2 122.019C222.834 121.771 222.399 121.647 221.957 121.665C221.322 121.665 220.713 121.918 220.264 122.367C219.815 122.816 219.563 123.425 219.563 124.059C219.563 124.694 219.815 125.303 220.264 125.752C220.713 126.201 221.322 126.454 221.957 126.454C222.394 126.471 222.825 126.351 223.189 126.11C223.554 125.87 223.834 125.52 223.989 125.112H225.611C225.415 125.925 224.945 126.645 224.279 127.151C223.613 127.656 222.793 127.916 221.957 127.886C221.449 127.897 220.944 127.807 220.471 127.619C219.998 127.432 219.568 127.151 219.206 126.794C218.844 126.438 218.557 126.012 218.363 125.542C218.169 125.072 218.071 124.568 218.075 124.059H218.088Z" fill="#003399"/>
<path d="M231.059 120.233C231.815 120.236 232.553 120.464 233.18 120.886C233.807 121.309 234.295 121.908 234.582 122.607C234.869 123.307 234.942 124.075 234.793 124.816C234.643 125.557 234.277 126.238 233.742 126.771C233.206 127.304 232.524 127.667 231.782 127.813C231.04 127.96 230.272 127.883 229.574 127.593C228.876 127.303 228.279 126.812 227.859 126.183C227.44 125.555 227.216 124.815 227.216 124.059C227.211 123.554 227.307 123.053 227.499 122.586C227.691 122.118 227.974 121.694 228.332 121.337C228.69 120.981 229.116 120.7 229.584 120.51C230.053 120.32 230.554 120.226 231.059 120.233ZM231.059 126.436C231.535 126.452 232.005 126.324 232.408 126.071C232.811 125.817 233.129 125.449 233.32 125.013C233.512 124.577 233.569 124.094 233.484 123.625C233.399 123.157 233.175 122.724 232.842 122.384C232.509 122.044 232.082 121.811 231.616 121.715C231.149 121.619 230.665 121.666 230.225 121.848C229.785 122.03 229.409 122.339 229.147 122.737C228.884 123.134 228.747 123.601 228.751 124.077C228.745 124.385 228.801 124.692 228.915 124.979C229.029 125.266 229.199 125.527 229.416 125.747C229.633 125.967 229.891 126.141 230.177 126.26C230.462 126.378 230.768 126.438 231.077 126.436H231.059Z" fill="#003399"/>
<path d="M240.381 120.233C241.137 120.236 241.876 120.464 242.502 120.886C243.129 121.309 243.617 121.908 243.904 122.607C244.191 123.307 244.264 124.075 244.115 124.816C243.965 125.557 243.599 126.238 243.064 126.771C242.528 127.304 241.846 127.667 241.104 127.813C240.363 127.96 239.594 127.883 238.896 127.593C238.198 127.303 237.601 126.812 237.181 126.183C236.762 125.555 236.538 124.815 236.538 124.059C236.533 123.554 236.63 123.053 236.821 122.586C237.013 122.118 237.296 121.694 237.654 121.337C238.012 120.981 238.438 120.7 238.906 120.51C239.375 120.32 239.876 120.226 240.381 120.233ZM240.381 126.436C241.014 126.436 241.621 126.185 242.068 125.738C242.516 125.29 242.767 124.683 242.767 124.051C242.767 123.418 242.516 122.811 242.068 122.364C241.621 121.917 241.014 121.665 240.381 121.665C240.07 121.669 239.763 121.734 239.478 121.858C239.193 121.981 238.935 122.161 238.72 122.385C238.505 122.61 238.337 122.875 238.226 123.166C238.115 123.456 238.063 123.766 238.074 124.077C238.067 124.386 238.122 124.693 238.236 124.98C238.35 125.267 238.52 125.528 238.737 125.748C238.954 125.968 239.213 126.143 239.498 126.261C239.783 126.379 240.09 126.439 240.399 126.436H240.381Z" fill="#003399"/>
<path d="M246.373 130.729V120.376H247.84V121.445C248.345 120.686 249.134 120.237 250.355 120.237C252.469 120.237 254.009 121.907 254.009 124.081C254.009 126.255 252.473 127.89 250.355 127.89C249.117 127.89 248.345 127.459 247.84 126.7V130.733L246.373 130.729ZM247.84 124.508C247.92 125.054 248.197 125.552 248.619 125.907C249.041 126.262 249.579 126.451 250.131 126.436C250.763 126.436 251.37 126.185 251.817 125.738C252.265 125.29 252.516 124.684 252.516 124.051C252.516 123.418 252.265 122.811 251.817 122.364C251.37 121.917 250.763 121.665 250.131 121.665C249.569 121.655 249.024 121.854 248.601 122.223C248.177 122.592 247.906 123.105 247.84 123.663V124.508Z" fill="#003399"/>
<path d="M257.179 124.439C257.219 125.018 257.482 125.558 257.913 125.947C258.343 126.336 258.908 126.542 259.487 126.523C259.851 126.534 260.211 126.448 260.531 126.276C260.852 126.103 261.121 125.849 261.312 125.539H263.037C262.606 126.967 261.312 127.886 259.487 127.886C258.982 127.892 258.481 127.797 258.014 127.607C257.546 127.417 257.12 127.135 256.763 126.779C256.405 126.423 256.122 125.999 255.929 125.532C255.737 125.065 255.64 124.564 255.644 124.06C255.628 123.556 255.716 123.054 255.9 122.585C256.085 122.116 256.363 121.69 256.718 121.332C257.073 120.974 257.496 120.692 257.964 120.503C258.431 120.314 258.932 120.222 259.435 120.233C261.497 120.233 263.016 121.463 263.244 123.438C263.244 123.632 263.244 123.805 263.244 123.956C263.244 124.107 263.244 124.267 263.244 124.439H257.179ZM261.588 123.404C261.531 122.882 261.275 122.403 260.873 122.066C260.471 121.729 259.954 121.561 259.431 121.596C258.907 121.578 258.394 121.751 257.988 122.084C257.582 122.417 257.311 122.886 257.227 123.404H261.588Z" fill="#003399"/>
<path d="M265.345 120.371H266.808V121.903C267.076 121.389 267.483 120.96 267.982 120.665C268.482 120.37 269.053 120.22 269.633 120.233V121.799C268.24 121.799 266.851 122.701 266.808 124.318V127.769H265.345V120.371Z" fill="#003399"/>
<path d="M278.731 127.765H277.264V126.695C276.984 127.094 276.605 127.413 276.164 127.622C275.723 127.831 275.236 127.922 274.749 127.886C272.614 127.886 271.096 126.212 271.096 124.077C271.096 121.941 272.61 120.233 274.749 120.233C275.238 120.195 275.728 120.287 276.169 120.499C276.611 120.711 276.989 121.036 277.264 121.441V120.371H278.731V127.765ZM277.264 123.663C277.197 123.102 276.923 122.587 276.496 122.218C276.07 121.849 275.521 121.652 274.956 121.665C274.324 121.665 273.717 121.917 273.27 122.364C272.822 122.811 272.571 123.418 272.571 124.051C272.571 124.683 272.822 125.29 273.27 125.738C273.717 126.185 274.324 126.436 274.956 126.436C275.511 126.456 276.053 126.27 276.479 125.914C276.905 125.558 277.185 125.057 277.264 124.508V123.663Z" fill="#003399"/>
<path d="M283.692 118.124V120.367H285.689V121.661H283.692V125.401C283.692 126.298 284.123 126.54 284.757 126.54C285.069 126.532 285.381 126.503 285.689 126.454V127.799C285.278 127.866 284.863 127.901 284.447 127.903C282.993 127.903 282.225 127.329 282.225 125.608V121.665H280.866V120.371H282.225V118.124H283.692Z" fill="#003399"/>
<path d="M288.592 117.235C288.723 117.226 288.854 117.244 288.978 117.288C289.102 117.333 289.215 117.401 289.311 117.491C289.406 117.581 289.483 117.689 289.535 117.809C289.587 117.93 289.614 118.059 289.614 118.191C289.614 118.322 289.587 118.452 289.535 118.572C289.483 118.692 289.406 118.8 289.311 118.89C289.215 118.98 289.102 119.049 288.978 119.093C288.854 119.137 288.723 119.155 288.592 119.146C288.461 119.155 288.33 119.137 288.207 119.093C288.083 119.049 287.97 118.98 287.874 118.89C287.778 118.8 287.702 118.692 287.65 118.572C287.597 118.452 287.57 118.322 287.57 118.191C287.57 118.059 287.597 117.93 287.65 117.809C287.702 117.689 287.778 117.581 287.874 117.491C287.97 117.401 288.083 117.333 288.207 117.288C288.33 117.244 288.461 117.226 288.592 117.235ZM287.85 127.765V120.371H289.313V127.765H287.85Z" fill="#003399"/>
<path d="M295.3 120.233C296.056 120.236 296.794 120.464 297.421 120.886C298.048 121.309 298.536 121.908 298.823 122.607C299.11 123.307 299.183 124.075 299.034 124.816C298.884 125.557 298.518 126.238 297.983 126.771C297.447 127.304 296.765 127.667 296.023 127.813C295.281 127.96 294.513 127.883 293.815 127.593C293.117 127.303 292.52 126.812 292.1 126.183C291.681 125.555 291.457 124.815 291.457 124.059C291.452 123.554 291.548 123.053 291.74 122.586C291.932 122.118 292.215 121.694 292.573 121.337C292.931 120.981 293.357 120.7 293.825 120.51C294.294 120.32 294.795 120.226 295.3 120.233ZM295.3 126.436C295.933 126.436 296.54 126.185 296.987 125.738C297.434 125.29 297.686 124.683 297.686 124.051C297.686 123.418 297.434 122.811 296.987 122.364C296.54 121.917 295.933 121.665 295.3 121.665C294.989 121.669 294.682 121.734 294.396 121.857C294.111 121.981 293.853 122.16 293.637 122.385C293.422 122.61 293.254 122.875 293.142 123.165C293.031 123.456 292.978 123.766 292.988 124.077C292.981 124.386 293.036 124.693 293.151 124.981C293.265 125.268 293.436 125.53 293.653 125.75C293.87 125.97 294.13 126.144 294.416 126.262C294.702 126.38 295.008 126.439 295.318 126.436H295.3Z" fill="#003399"/>
<path d="M301.292 120.371H302.759V121.665C303.037 121.215 303.428 120.846 303.894 120.595C304.359 120.343 304.883 120.219 305.412 120.233C307.008 120.233 308 121.342 308 122.938V127.765H306.52V123.352C306.541 123.128 306.513 122.902 306.437 122.69C306.362 122.478 306.241 122.285 306.083 122.125C305.926 121.964 305.735 121.84 305.524 121.761C305.314 121.681 305.088 121.649 304.864 121.665C303.682 121.665 302.793 122.847 302.746 124.008V127.765H301.279L301.292 120.371Z" fill="#003399"/>
</svg>
