<svg width="22" height="23" viewBox="0 0 22 23" fill="none" xmlns="http://www.w3.org/2000/svg">
<path d="M11.0004 4C6.02986 4 2.00042 8.02944 2.00042 13C2.00042 17.9706 6.02986 22 11.0004 22C15.971 22 20.0004 17.9706 20.0004 13C20.0004 8.02944 15.971 4 11.0004 4ZM11.0004 4V1M17.0004 6L19.0004 4M5.00042 6L3.00042 4M9.00042 1H13.0004M11.0004 9V13M18.0004 2.58342C18.9607 3.26108 19.817 4.07614 20.5408 5M1.6377 5C2.31657 4.13351 3.11201 3.36272 4.00042 2.71125" stroke="black" stroke-width="2" stroke-linecap="round"/>
</svg>
