<svg width="20" height="21" viewBox="0 0 20 21" fill="none" xmlns="http://www.w3.org/2000/svg">
<path d="M9 2.0686H5.8C4.11984 2.0686 3.27976 2.0686 2.63803 2.39558C2.07354 2.6832 1.6146 3.14215 1.32698 3.70663C1 4.34837 1 5.18845 1 6.8686V14.2686C1 15.9488 1 16.7888 1.32698 17.4306C1.6146 17.9951 2.07354 18.454 2.63803 18.7416C3.27976 19.0686 4.11984 19.0686 5.8 19.0686H13.2C14.8802 19.0686 15.7202 19.0686 16.362 18.7416C16.9265 18.454 17.3854 17.9951 17.673 17.4306C18 16.7888 18 15.9488 18 14.2686V11.0686M18.1213 1.94728C19.2929 3.11886 19.2929 5.01835 18.1213 6.18992C16.9497 7.3615 15.0503 7.3615 13.8787 6.18992C12.7071 5.01835 12.7071 3.11886 13.8787 1.94728C15.0503 0.77571 16.9497 0.77571 18.1213 1.94728Z" stroke="#A4A4A4" stroke-width="2" stroke-linecap="round" stroke-linejoin="round"/>
</svg>
