<svg width="22" height="19" viewBox="0 0 22 19" fill="none" xmlns="http://www.w3.org/2000/svg">
<path d="M1.5 9.13721H4.88197C5.56717 9.13721 6.19357 9.52434 6.5 10.1372C6.80643 10.7501 7.43283 11.1372 8.11803 11.1372H13.882C14.5672 11.1372 15.1936 10.7501 15.5 10.1372C15.8064 9.52434 16.4328 9.13721 17.118 9.13721H20.5M7.96656 1.13721H14.0334C15.1103 1.13721 15.6487 1.13721 16.1241 1.30117C16.5445 1.44617 16.9274 1.6828 17.2451 1.99395C17.6043 2.3458 17.8451 2.82741 18.3267 3.79058L20.4932 8.12371C20.6822 8.50169 20.7767 8.69069 20.8434 8.88875C20.9026 9.06466 20.9453 9.24567 20.971 9.42947C21 9.63643 21 9.84773 21 10.2703V12.3372C21 14.0174 21 14.8574 20.673 15.4992C20.3854 16.0637 19.9265 16.5226 19.362 16.8102C18.7202 17.1372 17.8802 17.1372 16.2 17.1372H5.8C4.11984 17.1372 3.27976 17.1372 2.63803 16.8102C2.07354 16.5226 1.6146 16.0637 1.32698 15.4992C1 14.8574 1 14.0174 1 12.3372V10.2703C1 9.84773 1 9.63643 1.02897 9.42947C1.05471 9.24567 1.09744 9.06466 1.15662 8.88875C1.22326 8.69069 1.31776 8.50169 1.50675 8.12371L3.67331 3.79058C4.1549 2.8274 4.3957 2.3458 4.75495 1.99395C5.07263 1.6828 5.45551 1.44617 5.87589 1.30117C6.35125 1.13721 6.88969 1.13721 7.96656 1.13721Z" stroke="#A4A4A4" stroke-width="2" stroke-linecap="round" stroke-linejoin="round"/>
</svg>
