<svg width="20" height="22" viewBox="0 0 20 22" fill="none" xmlns="http://www.w3.org/2000/svg">
<path d="M9 18.1372C8.44772 18.1372 8 18.5849 8 19.1372C8 19.6895 8.44772 20.1372 9 20.1372V18.1372ZM13.908 18.9192L13.454 18.0282L13.454 18.0282L13.908 18.9192ZM14.782 18.0452L15.673 18.4992V18.4992L14.782 18.0452ZM13.908 1.35519L13.454 2.2462L13.454 2.2462L13.908 1.35519ZM14.782 2.22923L13.891 2.68322V2.68322L14.782 2.22923ZM2.09202 1.35519L1.63803 0.464187L1.63803 0.464188L2.09202 1.35519ZM0.326981 1.77524C0.0762485 2.26732 0.271907 2.8695 0.763997 3.12023C1.25609 3.37096 1.85826 3.17531 2.10899 2.68322L0.326981 1.77524ZM15.979 17.1982C16.0126 16.6469 15.593 16.1727 15.0418 16.1391C14.4905 16.1054 14.0163 16.525 13.9827 17.0763L15.979 17.1982ZM13.9827 3.19815C14.0163 3.74941 14.4905 4.16901 15.0418 4.13535C15.593 4.10169 16.0126 3.62752 15.979 3.07626L13.9827 3.19815ZM14 9.13721C13.4477 9.13721 13 9.58492 13 10.1372C13 10.6895 13.4477 11.1372 14 11.1372V9.13721ZM18 11.1372C18.5523 11.1372 19 10.6895 19 10.1372C19 9.58492 18.5523 9.13721 18 9.13721V11.1372ZM17.8321 6.58251C17.5257 6.12298 16.9048 5.9988 16.4453 6.30516C15.9858 6.61151 15.8616 7.23238 16.1679 7.69191L17.8321 6.58251ZM18.8151 9.85986L17.983 10.4146L18.8151 9.85986ZM18.8151 10.4146L17.983 9.85986L18.8151 10.4146ZM16.1679 12.5825C15.8616 13.042 15.9858 13.6629 16.4453 13.9693C16.9048 14.2756 17.5257 14.1514 17.8321 13.6919L16.1679 12.5825ZM3.7313 1.27664L3.36789 2.20827L3.7313 1.27664ZM7.73131 2.837L8.09472 1.90537L7.73131 2.837ZM6.26869 19.9978L5.90528 20.9294L6.26869 19.9978ZM2.26869 18.4374L1.90528 19.369L1.90528 19.369L2.26869 18.4374ZM4.2 2.13721H11.8V0.137207H4.2V2.13721ZM11.8 18.1372H9V20.1372H11.8V18.1372ZM11.8 20.1372C12.3436 20.1372 12.8114 20.138 13.195 20.1066C13.5904 20.0743 13.9836 20.003 14.362 19.8102L13.454 18.0282C13.4045 18.0534 13.3038 18.0911 13.0322 18.1133C12.7488 18.1364 12.3766 18.1372 11.8 18.1372V20.1372ZM13.891 17.5912C13.7951 17.7794 13.6422 17.9323 13.454 18.0282L14.362 19.8102C14.9265 19.5226 15.3854 19.0637 15.673 18.4992L13.891 17.5912ZM11.8 2.13721C12.3766 2.13721 12.7488 2.13798 13.0322 2.16113C13.3038 2.18333 13.4045 2.22101 13.454 2.2462L14.362 0.464188C13.9836 0.271393 13.5904 0.200077 13.195 0.167776C12.8114 0.136429 12.3436 0.137207 11.8 0.137207V2.13721ZM13.454 2.2462C13.6422 2.34207 13.7951 2.49505 13.891 2.68322L15.673 1.77524C15.3854 1.21075 14.9265 0.751808 14.362 0.464187L13.454 2.2462ZM4.2 0.137207C3.65645 0.137207 3.18864 0.136429 2.80497 0.167776C2.40963 0.200077 2.01641 0.271393 1.63803 0.464187L2.54601 2.2462C2.59545 2.22101 2.69617 2.18333 2.96784 2.16113C3.25117 2.13798 3.62345 2.13721 4.2 2.13721V0.137207ZM2.10899 2.68322C2.20487 2.49505 2.35785 2.34207 2.54601 2.2462L1.63803 0.464188C1.07354 0.751808 0.614601 1.21075 0.326981 1.77524L2.10899 2.68322ZM13.9827 17.0763C13.9618 17.4183 13.9196 17.535 13.891 17.5912L15.673 18.4992C15.8864 18.0804 15.9519 17.6405 15.979 17.1982L13.9827 17.0763ZM15.979 3.07626C15.9519 2.63388 15.8864 2.19404 15.673 1.77524L13.891 2.68322C13.9196 2.73943 13.9618 2.85611 13.9827 3.19815L15.979 3.07626ZM14 11.1372H18V9.13721H14V11.1372ZM16.1679 7.69191L17.983 10.4146L19.6472 9.30516L17.8321 6.58251L16.1679 7.69191ZM17.983 9.85986L16.1679 12.5825L17.8321 13.6919L19.6472 10.9693L17.983 9.85986ZM17.983 10.4146C17.8711 10.2466 17.8711 10.0278 17.983 9.85986L19.6472 10.9693C19.983 10.4654 19.983 9.80901 19.6472 9.30516L17.983 10.4146ZM3.36789 2.20827L7.36789 3.76862L8.09472 1.90537L4.09472 0.345014L3.36789 2.20827ZM8 4.68538V18.1494H10V4.68538H8ZM6.63211 19.0661L2.63211 17.5058L1.90528 19.369L5.90528 20.9294L6.63211 19.0661ZM2 16.589V3.12503H0V16.589H2ZM2.63211 17.5058C2.24745 17.3557 2 16.9901 2 16.589H0C0 17.821 0.759204 18.922 1.90528 19.369L2.63211 17.5058ZM8 18.1494C8 18.8347 7.29836 19.326 6.63211 19.0661L5.90528 20.9294C7.86312 21.6931 10 20.2635 10 18.1494H8ZM7.36789 3.76862C7.75255 3.91868 8 4.28427 8 4.68538H10C10 3.45345 9.2408 2.35244 8.09472 1.90537L7.36789 3.76862ZM4.09472 0.345014C2.13688 -0.418717 0 1.01091 0 3.12503H2C2 2.43969 2.70164 1.94837 3.36789 2.20827L4.09472 0.345014Z" fill="#DE0000"/>
</svg>
