<svg width="20" height="21" viewBox="0 0 20 21" fill="none" xmlns="http://www.w3.org/2000/svg">
<path d="M8 6.63944C8.1762 6.13857 8.52397 5.71621 8.98173 5.44718C9.43949 5.17815 9.9777 5.07981 10.501 5.16957C11.0243 5.25934 11.499 5.53141 11.8409 5.93761C12.1829 6.34381 12.37 6.85792 12.3692 7.38888C12.3692 8.88777 10.1209 9.63721 10.1209 9.63721M10.1499 12.6372H10.1599M7.9 17.3372L9.36 19.2839C9.57712 19.5734 9.68568 19.7181 9.81876 19.7699C9.93534 19.8152 10.0647 19.8152 10.1812 19.7699C10.3143 19.7181 10.4229 19.5734 10.64 19.2839L12.1 17.3372C12.3931 16.9463 12.5397 16.7509 12.7185 16.6017C12.9569 16.4028 13.2383 16.262 13.5405 16.1907C13.7671 16.1372 14.0114 16.1372 14.5 16.1372C15.8978 16.1372 16.5967 16.1372 17.1481 15.9088C17.8831 15.6044 18.4672 15.0203 18.7716 14.2853C19 13.7339 19 13.035 19 11.6372V5.93721C19 4.25705 19 3.41697 18.673 2.77524C18.3854 2.21075 17.9265 1.75181 17.362 1.46419C16.7202 1.13721 15.8802 1.13721 14.2 1.13721H5.8C4.11984 1.13721 3.27976 1.13721 2.63803 1.46419C2.07354 1.75181 1.6146 2.21075 1.32698 2.77524C1 3.41697 1 4.25705 1 5.93721V11.6372C1 13.035 1 13.7339 1.22836 14.2853C1.53284 15.0203 2.11687 15.6044 2.85195 15.9088C3.40326 16.1372 4.10218 16.1372 5.5 16.1372C5.98858 16.1372 6.23287 16.1372 6.45951 16.1907C6.76169 16.262 7.04312 16.4028 7.2815 16.6017C7.46028 16.7509 7.60685 16.9463 7.9 17.3372Z" stroke="#A4A4A4" stroke-width="2" stroke-linecap="round" stroke-linejoin="round"/>
</svg>
