<svg width="14" height="24" viewBox="0 0 14 24" fill="none" xmlns="http://www.w3.org/2000/svg">
<path d="M7.07983 0.916992C10.7507 0.916992 13.7371 3.90331 13.7371 7.57422C13.737 8.79824 13.3967 9.99719 12.7537 11.0459C12.7441 11.066 12.735 11.0859 12.7234 11.1045L12.7244 11.1055L9.33765 16.5488C10.554 16.7488 11.5934 17.1049 12.3552 17.5762C13.1892 18.0921 13.7372 18.7773 13.7371 19.5752L13.7273 19.7568C13.6321 20.6572 12.8351 21.394 11.7322 21.9023C10.5373 22.453 8.89548 22.7822 7.07007 22.7822C5.24471 22.7822 3.60277 22.453 2.40796 21.9023C1.23198 21.3602 0.404298 20.5583 0.404053 19.5752C0.404053 18.7841 0.925855 18.1059 1.73804 17.5928C2.47915 17.1246 3.49588 16.7712 4.698 16.5654L1.43042 11.0957V11.0947C1.42103 11.079 1.41448 11.0624 1.40698 11.0469L1.28979 10.8486C0.722069 9.8477 0.422638 8.72211 0.422607 7.57422C0.422607 3.90333 3.40901 0.917044 7.07983 0.916992ZM7.49487 19.5137C7.39763 19.6698 7.23536 19.7727 7.05542 19.7959L6.97729 19.8008H6.97241C6.78615 19.7993 6.61301 19.7128 6.49976 19.5693L6.45483 19.5049L5.37476 17.6963C4.27847 17.841 3.3356 18.1204 2.66479 18.4678C2.31296 18.65 2.04563 18.845 1.86987 19.04C1.69451 19.2347 1.62183 19.4153 1.62183 19.5752C1.62199 19.7449 1.71711 19.9559 1.96265 20.1904C2.20601 20.4228 2.5745 20.656 3.05933 20.8623C4.02754 21.2743 5.4186 21.5645 7.07104 21.5645C8.7233 21.5644 10.1137 21.2742 11.0818 20.8623C11.5664 20.6561 11.9351 20.4237 12.1785 20.1914C12.4241 19.9568 12.5192 19.745 12.5193 19.5752L12.5046 19.4512C12.4747 19.3231 12.3972 19.1827 12.2585 19.0332C12.0738 18.8342 11.7943 18.6351 11.4285 18.4502C10.7294 18.0969 9.75255 17.8167 8.63452 17.6807L7.49487 19.5137ZM7.07983 2.13477C4.08046 2.13482 1.64038 4.57505 1.64038 7.57422C1.64041 8.59205 1.92869 9.5898 2.47534 10.46L2.5105 10.5293L6.98706 18.0225L7.72827 16.833C7.79612 16.7216 7.80973 16.6972 7.8689 16.6064L11.6541 10.5205C11.6636 10.5006 11.6723 10.4801 11.6843 10.4609V10.46L11.8767 10.1279C12.298 9.34039 12.5193 8.46532 12.5193 7.57422C12.5193 4.57501 10.079 2.13477 7.07983 2.13477Z" fill="#A4A4A4" stroke="#A4A4A4" stroke-width="0.5"/>
<path d="M7.07104 4.99438C8.49341 4.99463 9.65015 6.15203 9.65015 7.57446C9.64991 8.9967 8.49327 10.1533 7.07104 10.1536C5.64861 10.1536 4.4912 8.99685 4.49097 7.57446C4.49097 6.15188 5.64847 4.99438 7.07104 4.99438ZM7.07104 6.21216C6.32018 6.21216 5.70874 6.82358 5.70874 7.57446C5.70898 8.32517 6.32011 8.93579 7.07104 8.93579C7.82177 8.93554 8.43214 8.32501 8.43237 7.57446C8.43237 6.82373 7.8217 6.21241 7.07104 6.21216Z" fill="#A4A4A4" stroke="#A4A4A4" stroke-width="0.5"/>
</svg>
