<svg width="18" height="23" viewBox="0 0 18 23" fill="none" xmlns="http://www.w3.org/2000/svg">
<path d="M11 10.1372H5M7 14.1372H5M13 6.13721H5M17 5.93721V16.3372C17 18.0174 17 18.8574 16.673 19.4992C16.3854 20.0637 15.9265 20.5226 15.362 20.8102C14.7202 21.1372 13.8802 21.1372 12.2 21.1372H5.8C4.11984 21.1372 3.27976 21.1372 2.63803 20.8102C2.07354 20.5226 1.6146 20.0637 1.32698 19.4992C1 18.8574 1 18.0174 1 16.3372V5.93721C1 4.25705 1 3.41697 1.32698 2.77524C1.6146 2.21075 2.07354 1.75181 2.63803 1.46419C3.27976 1.13721 4.11984 1.13721 5.8 1.13721H12.2C13.8802 1.13721 14.7202 1.13721 15.362 1.46419C15.9265 1.75181 16.3854 2.21075 16.673 2.77524C17 3.41697 17 4.25705 17 5.93721Z" stroke="#A4A4A4" stroke-width="2" stroke-linecap="round" stroke-linejoin="round"/>
</svg>
