<svg width="47" height="46" viewBox="0 0 47 46" fill="none" xmlns="http://www.w3.org/2000/svg">
<ellipse cx="23.5" cy="23" rx="23.5" ry="23" fill="#218A23"/>
<rect width="32" height="32" transform="translate(7 7)" fill="#218A23"/>
<path d="M13.4828 29.9422L13.093 30.8631H13.093L13.4828 29.9422ZM13.4828 19.8078L13.8726 20.7287L13.4828 19.8078ZM14.511 19.6261L14.3212 20.608H14.3212L14.511 19.6261ZM15.3915 20.2096L16.2217 19.6521L16.2217 19.6521L15.3915 20.2096ZM14.511 30.1239L14.3212 29.142H14.3212L14.511 30.1239ZM15.3915 29.5404L14.5613 28.9829L14.5613 28.9829L15.3915 29.5404ZM31.5172 29.9422L31.907 30.8631L31.5172 29.9422ZM31.5172 19.8078L31.1274 20.7287L31.5172 19.8078ZM30.489 19.6261L30.6788 20.608H30.6788L30.489 19.6261ZM29.6085 20.2096L28.7783 19.6521V19.6521L29.6085 20.2096ZM30.489 30.1239L30.6788 29.142H30.6788L30.489 30.1239ZM29.6085 29.5404L30.4387 28.9829L30.4387 28.9829L29.6085 29.5404ZM33.125 30.375C33.125 29.8227 32.6773 29.375 32.125 29.375C31.5727 29.375 31.125 29.8227 31.125 30.375H33.125ZM22.5 33.5C21.9477 33.5 21.5 33.9477 21.5 34.5C21.5 35.0523 21.9477 35.5 22.5 35.5V33.5ZM13.8726 29.0213C12.2561 28.3371 11.125 26.737 11.125 24.875H9.125C9.125 27.5683 10.7629 29.8768 13.093 30.8631L13.8726 29.0213ZM11.125 24.875C11.125 23.013 12.2561 21.4129 13.8726 20.7287L13.093 18.8869C10.7629 19.8732 9.125 22.1817 9.125 24.875H11.125ZM16.625 28.175V21.575H14.625V28.175H16.625ZM13.8726 20.7287C13.9804 20.683 14.0503 20.6536 14.1109 20.6309C14.1679 20.6094 14.196 20.6019 14.2097 20.599C14.2195 20.5968 14.2241 20.5965 14.2311 20.5965C14.2405 20.5965 14.2672 20.5975 14.3212 20.608L14.7007 18.6443C14.3832 18.5829 14.0904 18.5781 13.7841 18.6448C13.5201 18.7023 13.2736 18.8105 13.093 18.8869L13.8726 20.7287ZM16.625 21.575C16.625 20.9775 16.6569 20.3003 16.2217 19.6521L14.5613 20.7671C14.5796 20.7942 14.593 20.8158 14.6051 20.904C14.6229 21.0344 14.625 21.2108 14.625 21.575H16.625ZM14.3212 20.608C14.2889 20.6017 14.2901 20.5976 14.3268 20.6145C14.3589 20.6293 14.4005 20.6522 14.4451 20.6817C14.4896 20.7113 14.5269 20.7407 14.5531 20.7644C14.583 20.7916 14.5797 20.7944 14.5613 20.7671L16.2217 19.6521C16.0373 19.3775 15.7679 19.159 15.5498 19.0145C15.3317 18.87 15.0255 18.7071 14.7007 18.6443L14.3212 20.608ZM13.093 30.8631C13.2736 30.9396 13.5201 31.0477 13.7841 31.1052C14.0904 31.1719 14.3832 31.1671 14.7007 31.1057L14.3212 29.142C14.2672 29.1525 14.2405 29.1535 14.2311 29.1535C14.2241 29.1535 14.2195 29.1532 14.2097 29.151C14.196 29.1481 14.1679 29.1406 14.1109 29.1191C14.0503 29.0964 13.9804 29.067 13.8726 29.0213L13.093 30.8631ZM14.625 28.175C14.625 28.5392 14.6229 28.7156 14.6051 28.846C14.593 28.9342 14.5795 28.9558 14.5613 28.9829L16.2217 30.0979C16.6569 29.4497 16.625 28.7725 16.625 28.175H14.625ZM14.7007 31.1057C15.0255 31.0429 15.3317 30.88 15.5498 30.7355C15.7679 30.591 16.0373 30.3725 16.2217 30.0979L14.5613 28.9829C14.5797 28.9556 14.583 28.9584 14.5531 28.9856C14.5269 29.0093 14.4896 29.0387 14.4451 29.0683C14.4005 29.0978 14.3589 29.1207 14.3268 29.1355C14.2901 29.1524 14.2889 29.1483 14.3212 29.142L14.7007 31.1057ZM31.907 30.8631C34.2371 29.8768 35.875 27.5683 35.875 24.875H33.875C33.875 26.737 32.7439 28.3371 31.1274 29.0213L31.907 30.8631ZM35.875 24.875C35.875 22.1817 34.2371 19.8732 31.907 18.8869L31.1274 20.7287C32.7439 21.4129 33.875 23.013 33.875 24.875H35.875ZM30.375 28.175V21.575H28.375V28.175H30.375ZM31.907 18.8869C31.7264 18.8105 31.4799 18.7023 31.2159 18.6448C30.9096 18.5781 30.6168 18.5829 30.2993 18.6443L30.6788 20.608C30.7328 20.5975 30.7595 20.5965 30.7689 20.5965C30.7759 20.5965 30.7805 20.5968 30.7903 20.599C30.804 20.6019 30.8321 20.6094 30.8891 20.6309C30.9497 20.6536 31.0196 20.683 31.1274 20.7287L31.907 18.8869ZM30.375 21.575C30.375 21.2108 30.3771 21.0344 30.3949 20.904C30.407 20.8158 30.4205 20.7942 30.4387 20.7671L28.7783 19.6521C28.3431 20.3003 28.375 20.9775 28.375 21.575H30.375ZM30.2993 18.6443C29.9745 18.7071 29.6683 18.87 29.4502 19.0145C29.2321 19.159 28.9627 19.3775 28.7783 19.6521L30.4387 20.7671C30.4203 20.7944 30.417 20.7916 30.4469 20.7644C30.4731 20.7407 30.5104 20.7113 30.5549 20.6817C30.5995 20.6522 30.6411 20.6293 30.6732 20.6145C30.7099 20.5976 30.7111 20.6017 30.6788 20.608L30.2993 18.6443ZM31.1274 29.0213C31.0196 29.067 30.9497 29.0964 30.8891 29.1191C30.8321 29.1406 30.804 29.1481 30.7903 29.151C30.7805 29.1532 30.7759 29.1535 30.7689 29.1535C30.7595 29.1535 30.7328 29.1525 30.6788 29.142L30.2993 31.1057C30.6168 31.1671 30.9096 31.1719 31.2159 31.1052C31.4799 31.0477 31.7264 30.9396 31.907 30.8631L31.1274 29.0213ZM28.375 28.175C28.375 28.7725 28.3431 29.4497 28.7783 30.0979L30.4387 28.9829C30.4205 28.9558 30.407 28.9342 30.3949 28.846C30.3771 28.7156 30.375 28.5392 30.375 28.175H28.375ZM30.6788 29.142C30.7111 29.1483 30.7099 29.1524 30.6732 29.1355C30.6411 29.1207 30.5995 29.0978 30.5549 29.0683C30.5104 29.0387 30.4731 29.0093 30.4469 28.9856C30.417 28.9584 30.4203 28.9556 30.4387 28.9829L28.7783 30.0979C28.9627 30.3725 29.2321 30.591 29.4502 30.7355C29.6683 30.88 29.9745 31.0429 30.2993 31.1057L30.6788 29.142ZM13.875 20.75C13.875 15.9865 17.7365 12.125 22.5 12.125V10.125C16.632 10.125 11.875 14.882 11.875 20.75H13.875ZM22.5 12.125C27.2635 12.125 31.125 15.9865 31.125 20.75H33.125C33.125 14.882 28.368 10.125 22.5 10.125V12.125ZM31.125 30.375V31.75H33.125V30.375H31.125ZM29.375 33.5H22.5V35.5H29.375V33.5ZM31.125 31.75C31.125 32.7165 30.3415 33.5 29.375 33.5V35.5C31.4461 35.5 33.125 33.8211 33.125 31.75H31.125Z" fill="white"/>
</svg>
