<svg width="47" height="46" viewBox="0 0 47 46" fill="none" xmlns="http://www.w3.org/2000/svg">
<ellipse cx="23.5" cy="23" rx="23.5" ry="23" fill="#003399"/>
<path d="M23.0005 26.6667C26.2221 26.6667 28.8338 24.0551 28.8338 20.8334C28.8338 17.6118 26.2221 15.0001 23.0005 15.0001C19.7788 15.0001 17.1672 17.6118 17.1672 20.8334C17.1672 24.0551 19.7788 26.6667 23.0005 26.6667ZM23.0005 26.6667C27.5472 26.6667 31.3346 29.1051 32.1647 32.3334M23.0005 26.6667C18.4537 26.6667 14.6664 29.1051 13.8363 32.3334M36.3337 23.0001C36.3337 30.3639 30.3641 36.3334 23.0003 36.3334C15.6365 36.3334 9.66699 30.3639 9.66699 23.0001C9.66699 15.6363 15.6365 9.66675 23.0003 9.66675C30.3641 9.66675 36.3337 15.6363 36.3337 23.0001Z" stroke="white" stroke-width="2" stroke-linecap="round"/>
</svg>
