<svg width="18" height="23" viewBox="0 0 18 23" fill="none" xmlns="http://www.w3.org/2000/svg">
<path d="M15.8925 17.1729L16.8925 17.1818L15.8925 17.1729ZM1 4.13721C0.447715 4.13721 0 4.58492 0 5.13721C0 5.68949 0.447715 6.13721 1 6.13721V4.13721ZM17 6.13721C17.5523 6.13721 18 5.68949 18 5.13721C18 4.58492 17.5523 4.13721 17 4.13721V6.13721ZM8 9.13721C8 8.58492 7.55228 8.13721 7 8.13721C6.44772 8.13721 6 8.58492 6 9.13721H8ZM6 17.1372C6 17.6895 6.44772 18.1372 7 18.1372C7.55228 18.1372 8 17.6895 8 17.1372H6ZM12 9.13721C12 8.58492 11.5523 8.13721 11 8.13721C10.4477 8.13721 10 8.58492 10 9.13721H12ZM10 17.1372C10 17.6895 10.4477 18.1372 11 18.1372C11.5523 18.1372 12 17.6895 12 17.1372H10ZM15 5.12828L14.8926 17.164L16.8925 17.1818L17 5.14614L15 5.12828ZM11.8927 20.1372H6V22.1372H11.8927V20.1372ZM1 5.13721V17.1372H3V5.13721H1ZM1 6.13721H2V4.13721H1V6.13721ZM2 6.13721H5V4.13721H2V6.13721ZM5 6.13721H13V4.13721H5V6.13721ZM13 6.13721H16V4.13721H13V6.13721ZM16 6.13721H17V4.13721H16V6.13721ZM6 4.69276C6 3.38884 7.22916 2.13721 9 2.13721V0.137207C6.35256 0.137207 4 2.06933 4 4.69276H6ZM9 2.13721C10.7708 2.13721 12 3.38884 12 4.69276H14C14 2.06933 11.6474 0.137207 9 0.137207V2.13721ZM4 4.69276V5.13721H6V4.69276H4ZM12 4.69276V5.13721H14V4.69276H12ZM6 20.1372C4.34314 20.1372 3 18.7941 3 17.1372H1C1 19.8986 3.23857 22.1372 6 22.1372V20.1372ZM14.8926 17.164C14.8779 18.8103 13.5391 20.1372 11.8927 20.1372V22.1372C14.6367 22.1372 16.868 19.9257 16.8925 17.1818L14.8926 17.164ZM6 9.13721V17.1372H8V9.13721H6ZM10 9.13721V17.1372H12V9.13721H10Z" fill="#DE0000"/>
</svg>
