<svg width="24" height="24" viewBox="0 0 24 24" fill="none" xmlns="http://www.w3.org/2000/svg">
<path d="M21 8C21 7.44772 20.5523 7 20 7C19.4477 7 19 7.44772 19 8H21ZM5 8C5 7.44772 4.55228 7 4 7C3.44772 7 3 7.44772 3 8H5ZM5.09202 19.782L5.54601 18.891H5.54601L5.09202 19.782ZM4.21799 18.908L5.10899 18.454L5.10899 18.454L4.21799 18.908ZM19.782 18.908L18.891 18.454V18.454L19.782 18.908ZM18.908 19.782L18.454 18.891H18.454L18.908 19.782ZM10.8 2.9L11.4 3.7V3.7L10.8 2.9ZM4.10667 7.92L4.70667 8.72H4.70667L4.10667 7.92ZM4.10667 8.08L4.70667 7.28H4.70667L4.10667 8.08ZM10.8 13.1L10.2 13.9H10.2L10.8 13.1ZM13.2 13.1L13.8 13.9H13.8L13.2 13.1ZM19.8933 8.08L19.2933 7.28L19.8933 8.08ZM19.8933 7.92L20.4933 7.12L19.8933 7.92ZM13.2 2.9L12.6 3.7L13.2 2.9ZM19 8V16.8H21V8H19ZM16.8 19H7.2V21H16.8V19ZM5 16.8V8H3V16.8H5ZM7.2 19C6.62345 19 6.25117 18.9992 5.96784 18.9761C5.69617 18.9539 5.59545 18.9162 5.54601 18.891L4.63803 20.673C5.01641 20.8658 5.40963 20.9371 5.80497 20.9694C6.18864 21.0008 6.65645 21 7.2 21V19ZM3 16.8C3 17.3436 2.99922 17.8114 3.03057 18.195C3.06287 18.5904 3.13419 18.9836 3.32698 19.362L5.10899 18.454C5.0838 18.4045 5.04612 18.3038 5.02393 18.0322C5.00078 17.7488 5 17.3766 5 16.8H3ZM5.54601 18.891C5.35785 18.7951 5.20487 18.6422 5.10899 18.454L3.32698 19.362C3.6146 19.9265 4.07354 20.3854 4.63803 20.673L5.54601 18.891ZM19 16.8C19 17.3766 18.9992 17.7488 18.9761 18.0322C18.9539 18.3038 18.9162 18.4045 18.891 18.454L20.673 19.362C20.8658 18.9836 20.9371 18.5904 20.9694 18.195C21.0008 17.8114 21 17.3436 21 16.8H19ZM16.8 21C17.3436 21 17.8114 21.0008 18.195 20.9694C18.5904 20.9371 18.9836 20.8658 19.362 20.673L18.454 18.891C18.4045 18.9162 18.3038 18.9539 18.0322 18.9761C17.7488 18.9992 17.3766 19 16.8 19V21ZM18.891 18.454C18.7951 18.6422 18.6422 18.7951 18.454 18.891L19.362 20.673C19.9265 20.3854 20.3854 19.9265 20.673 19.362L18.891 18.454ZM10.2 2.1L3.50667 7.12L4.70667 8.72L11.4 3.7L10.2 2.1ZM3.50667 8.88L10.2 13.9L11.4 12.3L4.70667 7.28L3.50667 8.88ZM13.8 13.9L20.4933 8.88L19.2933 7.28L12.6 12.3L13.8 13.9ZM20.4933 7.12L13.8 2.1L12.6 3.7L19.2933 8.72L20.4933 7.12ZM20.4933 8.88C21.08 8.44 21.08 7.56 20.4933 7.12L19.2933 8.72C18.8133 8.36 18.8133 7.64 19.2933 7.28L20.4933 8.88ZM10.2 13.9C11.2667 14.7 12.7333 14.7 13.8 13.9L12.6 12.3C12.2444 12.5667 11.7556 12.5667 11.4 12.3L10.2 13.9ZM3.50667 7.12C2.92 7.56 2.92 8.44 3.50667 8.88L4.70667 7.28C5.18667 7.64 5.18667 8.36 4.70667 8.72L3.50667 7.12ZM11.4 3.7C11.7556 3.43333 12.2444 3.43333 12.6 3.7L13.8 2.1C12.7333 1.3 11.2667 1.3 10.2 2.1L11.4 3.7Z" fill="black"/>
</svg>
