<svg width="56" height="56" viewBox="0 0 56 56" fill="none" xmlns="http://www.w3.org/2000/svg">
<path d="M44.291 12.0939V24.7023L43.6162 24.4513C43.3522 24.3528 42.89 24.3116 42.332 24.3029C42.0644 24.2987 41.7944 24.3015 41.5371 24.3038C41.2845 24.3061 41.038 24.3078 40.834 24.2999L40.6299 24.2921L40.4893 24.1437C39.9185 23.5378 39.3274 22.9271 38.6699 22.4757C38.0196 22.0292 37.3371 21.7614 36.583 21.8019L36.5547 21.8038L36.5264 21.8019C35.7791 21.7582 35.0978 22.0274 34.4453 22.4777C33.7857 22.9329 33.1928 23.5459 32.6201 24.1456L32.4736 24.2999L32.2617 24.3009L30.4736 24.3097L30.4746 24.3107C29.5384 24.3215 28.6409 24.6752 27.9512 25.3019L27.8164 25.4308C27.1109 26.1379 26.7104 27.094 26.7012 28.0929V28.0939L26.6816 29.8829L26.6797 30.0861L26.5371 30.2296L25.6465 31.129L25.5 31.2775H11.709V12.0939H44.291ZM18.3164 17.4562C18.0456 17.4858 17.863 17.5979 17.7422 17.7355C17.5964 17.9015 17.5142 18.1351 17.5146 18.3839C17.5151 18.6326 17.5988 18.866 17.7451 19.0323C17.884 19.1901 18.102 19.3144 18.4375 19.3195H37.5605C37.8995 19.3131 38.1178 19.1877 38.2559 19.0304C38.4015 18.8644 38.4839 18.632 38.4834 18.3839C38.4829 18.136 38.4002 17.9028 38.2539 17.7365C38.1324 17.5983 37.95 17.4861 37.6816 17.4562L37.5615 17.4484H18.4375L18.3164 17.4562Z" fill="url(#paint0_linear_58_8420)" stroke="url(#paint1_linear_58_8420)"/>
<path d="M51.4688 36.5236C51.4655 36.9708 51.3087 37.4015 51.0273 37.7443L50.8984 37.8849C50.537 38.2463 50.0482 38.4515 49.5371 38.4552H46.0322L47.1211 37.5675C48.1182 36.7553 48.7375 35.6949 48.8887 34.6212C49.0384 33.5583 48.7354 32.4493 47.8301 31.4943V31.4933L46.5752 30.2296L46.4355 30.09L46.4307 29.8917C46.424 29.6596 46.4266 29.3883 46.4287 29.1144C46.4308 28.8356 46.4317 28.547 46.4229 28.2628C46.4046 27.6748 46.3436 27.1835 46.2061 26.8771L46.1621 26.7784V11.1593L46.1572 11.0675C46.1355 10.8531 46.0404 10.6518 45.8867 10.4982C45.733 10.3445 45.5317 10.2494 45.3174 10.2277L45.2256 10.2228H10.7725C10.6803 10.2227 10.5888 10.2362 10.501 10.2628L10.415 10.2941C10.3299 10.3292 10.2506 10.3765 10.1797 10.4347L10.1113 10.4962C10.0245 10.5831 9.9561 10.6864 9.90918 10.7999C9.86231 10.9133 9.83775 11.0346 9.83789 11.1573V32.212L9.84277 32.3038C9.86455 32.5182 9.9596 32.7195 10.1133 32.8732C10.2887 33.0486 10.5263 33.1477 10.7744 33.1486H24.3174L24.2256 33.7267C23.9946 35.1876 24.7878 36.5035 26.0059 37.5802L26.9951 38.4552H6.46582C5.95333 38.4537 5.462 38.2492 5.09961 37.8868C4.7825 37.5697 4.58605 37.1543 4.54102 36.712L4.53125 36.5206V6.83997L4.54102 6.64954C4.58653 6.20786 4.78384 5.79335 5.10156 5.47766L5.24316 5.34973C5.58725 5.06956 6.01923 4.91618 6.4668 4.91711V4.91614H49.5342L49.7246 4.9259C50.1651 4.9701 50.5796 5.16401 50.8965 5.47864L51.0254 5.62024C51.3073 5.96174 51.4651 6.39134 51.4688 6.83801V36.5236Z" fill="url(#paint2_linear_58_8420)" stroke="url(#paint3_linear_58_8420)"/>
<path d="M45.2848 44.3494L46.6207 48.0184L46.6608 48.157C46.6896 48.2982 46.6865 48.4447 46.652 48.5858C46.6059 48.7738 46.5048 48.9443 46.3619 49.075C46.2192 49.2056 46.0405 49.2909 45.8492 49.3201C45.706 49.342 45.5602 49.3318 45.4225 49.2908L45.2867 49.2391L42.903 48.1229L41.7848 50.5184C41.7029 50.6936 41.5713 50.8409 41.4059 50.9412C41.2404 51.0415 41.0484 51.0904 40.8551 51.0818C40.662 51.0733 40.4758 51.0077 40.3199 50.8934C40.2028 50.8074 40.1063 50.6969 40.0377 50.5701L39.9791 50.4383L38.5553 46.5193L38.4449 46.2176L38.6744 45.992L40.5026 44.1932L40.6471 44.0506L40.8492 44.0486L44.8112 44.0203L45.1647 44.0174L45.2848 44.3494Z" fill="url(#paint4_linear_58_8420)" stroke="url(#paint5_linear_58_8420)"/>
<path d="M28.3104 44.0203L32.2626 44.0486L32.4647 44.0506L32.6093 44.1932L34.4471 46.0018L34.6766 46.2274L34.5663 46.5291L33.1425 50.4402C33.0929 50.5764 33.0141 50.6994 32.912 50.8006L32.8016 50.8943C32.6846 50.9802 32.5504 51.0389 32.4091 51.0662L32.2665 51.0828C32.1215 51.0892 31.9773 51.0633 31.8446 51.0076L31.7157 50.9422C31.5917 50.867 31.4865 50.7653 31.4071 50.6453L31.3368 50.5193L30.2177 48.1229L27.8348 49.2391H27.8339C27.7025 49.3005 27.5598 49.3324 27.4159 49.3318L27.2714 49.3201C27.128 49.2981 26.9922 49.2443 26.8729 49.1639L26.7596 49.075C26.6168 48.9443 26.5157 48.7738 26.4696 48.5858C26.4235 48.3978 26.4337 48.2003 26.4999 48.0184L27.8368 44.3494L27.9569 44.0174L28.3104 44.0203Z" fill="url(#paint6_linear_58_8420)" stroke="url(#paint7_linear_58_8420)"/>
<path d="M36.5591 23.6741C37.0666 23.6741 37.554 23.8735 37.9155 24.2297L39.8765 26.1624L42.6304 26.1829L42.8198 26.1936C43.2578 26.2399 43.6688 26.4352 43.9829 26.7493L44.1099 26.8889C44.3894 27.2292 44.5459 27.6567 44.5493 28.1008V28.1018L44.5688 30.8557L46.5015 32.8167L46.6274 32.9573C46.9047 33.2998 47.0581 33.7287 47.0581 34.1731C47.0581 34.6173 46.9045 35.0456 46.6274 35.3879L46.5015 35.5295L44.5688 37.4895L44.5483 40.2444C44.5451 40.6885 44.3893 41.1159 44.1099 41.4563L43.9829 41.5969C43.6689 41.9109 43.2577 42.1063 42.8198 42.1526L42.6304 42.1624L39.8765 42.1819L37.9155 44.1155C37.554 44.4718 37.0667 44.6721 36.5591 44.6721C36.1149 44.6721 35.6866 44.5184 35.3442 44.2415L35.2026 44.1155L33.2407 42.1819L30.4878 42.1624H30.4868C30.0427 42.159 29.6152 42.0034 29.2749 41.7239L29.1353 41.5969C28.8212 41.2829 28.626 40.8717 28.5796 40.4338L28.5688 40.2444L28.5483 37.4905L26.6167 35.5295C26.2603 35.1681 26.0601 34.6807 26.0601 34.1731L26.0698 33.9836C26.1129 33.5453 26.3048 33.133 26.6167 32.8167L28.5483 30.8547L28.5688 28.1008L28.5796 27.9124C28.6258 27.4743 28.8212 27.0634 29.1353 26.7493L29.2759 26.6213C29.6163 26.3421 30.0437 26.186 30.4878 26.1829L33.2407 26.1624L35.2026 24.2307V24.2297L35.3433 24.1038C35.6857 23.8267 36.1148 23.6741 36.5591 23.6741ZM36.5591 30.845C32.1668 30.9947 32.1658 37.3499 36.5591 37.5002C40.9512 37.3505 40.9524 30.9955 36.5591 30.845Z" fill="url(#paint8_linear_58_8420)" stroke="url(#paint9_linear_58_8420)"/>
<defs>
<linearGradient id="paint0_linear_58_8420" x1="28" y1="12.5939" x2="28" y2="30.7775" gradientUnits="userSpaceOnUse">
<stop stop-color="white" stop-opacity="0.47"/>
<stop offset="1" stop-color="#003399" stop-opacity="0"/>
</linearGradient>
<linearGradient id="paint1_linear_58_8420" x1="28" y1="12.5939" x2="28" y2="30.7775" gradientUnits="userSpaceOnUse">
<stop offset="0.58" stop-color="white"/>
<stop offset="1" stop-color="white" stop-opacity="0.15"/>
</linearGradient>
<linearGradient id="paint2_linear_58_8420" x1="28" y1="5.41614" x2="28" y2="37.9552" gradientUnits="userSpaceOnUse">
<stop stop-color="white" stop-opacity="0.55"/>
<stop offset="1" stop-color="white" stop-opacity="0"/>
</linearGradient>
<linearGradient id="paint3_linear_58_8420" x1="28" y1="5.41614" x2="28" y2="37.9552" gradientUnits="userSpaceOnUse">
<stop offset="0.58" stop-color="white"/>
<stop offset="1" stop-color="white" stop-opacity="0.06"/>
</linearGradient>
<linearGradient id="paint4_linear_58_8420" x1="42.6026" y1="44.5203" x2="42.6026" y2="50.5829" gradientUnits="userSpaceOnUse">
<stop stop-color="#F9FBFF"/>
<stop offset="0.948" stop-color="white" stop-opacity="0"/>
</linearGradient>
<linearGradient id="paint5_linear_58_8420" x1="42.6026" y1="44.5203" x2="42.6026" y2="50.5829" gradientUnits="userSpaceOnUse">
<stop stop-color="white"/>
<stop offset="0.645" stop-color="white" stop-opacity="0"/>
</linearGradient>
<linearGradient id="paint6_linear_58_8420" x1="30.5189" y1="44.5203" x2="30.5189" y2="50.5838" gradientUnits="userSpaceOnUse">
<stop stop-color="#F9FBFF"/>
<stop offset="0.948" stop-color="white" stop-opacity="0"/>
</linearGradient>
<linearGradient id="paint7_linear_58_8420" x1="30.5189" y1="44.5203" x2="30.5189" y2="50.5838" gradientUnits="userSpaceOnUse">
<stop stop-color="white"/>
<stop offset="0.645" stop-color="white" stop-opacity="0"/>
</linearGradient>
<linearGradient id="paint8_linear_58_8420" x1="36.559" y1="24.1741" x2="36.559" y2="44.1717" gradientUnits="userSpaceOnUse">
<stop stop-color="#80ABFF"/>
<stop offset="1" stop-color="#003399" stop-opacity="0"/>
</linearGradient>
<linearGradient id="paint9_linear_58_8420" x1="36.559" y1="24.1741" x2="36.559" y2="44.1717" gradientUnits="userSpaceOnUse">
<stop offset="0.58" stop-color="white"/>
<stop offset="1" stop-color="white" stop-opacity="0.15"/>
</linearGradient>
</defs>
</svg>
