<svg width="18" height="16" viewBox="0 0 18 16" fill="none" xmlns="http://www.w3.org/2000/svg">
<path d="M2.33335 3L1.19373 6.41886C0.934448 7.19672 1.51342 8 2.33335 8V8M2.33335 3V2.1C2.33335 1.53995 2.33335 1.25992 2.44235 1.04601C2.53822 0.857847 2.6912 0.704867 2.87936 0.608993C3.09327 0.5 3.3733 0.5 3.93335 0.5H14.0667C14.6267 0.5 14.9068 0.5 15.1207 0.608993C15.3088 0.704867 15.4618 0.857847 15.5577 1.04601C15.6667 1.25992 15.6667 1.53995 15.6667 2.1V3M2.33335 3H15.6667M15.6667 3L16.8063 6.41886C17.0656 7.19672 16.4866 8 15.6667 8V8M2.33335 8V12.3C2.33335 13.4201 2.33335 13.9802 2.55134 14.408C2.74309 14.7843 3.04905 15.0903 3.42537 15.282C3.8532 15.5 4.41325 15.5 5.53335 15.5H11.5M2.33335 8H9.00002H15.6667M15.6667 8V12.3C15.6667 13.4201 15.6667 13.9802 15.4487 14.408C15.257 14.7843 14.951 15.0903 14.5747 15.282C14.1468 15.5 13.5868 15.5 12.4667 15.5H11.5M11.5 15.5V11.3333M8.16669 11.3333H5.66669" stroke="white" stroke-linecap="round"/>
</svg>
