<svg width="24" height="24" viewBox="0 0 24 24" fill="none" xmlns="http://www.w3.org/2000/svg">
<path d="M12 16C15.3137 16 18 13.3137 18 10C18 6.68629 15.3137 4 12 4C8.68624 4 5.99995 6.68629 5.99995 10C5.99995 13.3137 8.68624 16 12 16ZM12 16L7.8535 20.1464C7.53852 20.4614 6.99995 20.2383 6.99995 19.7929V19C6.99995 17.8954 6.10452 17 4.99995 17H4.20706C3.76161 17 3.53852 16.4614 3.8535 16.1464L6.49995 13.5M12 16L16.1464 20.1464C16.4614 20.4614 17 20.2383 17 19.7929V19C17 17.8954 17.8954 17 19 17H19.7928C20.2383 17 20.4614 16.4614 20.1464 16.1464L17.5 13.5" stroke="black" stroke-width="2" stroke-linecap="round"/>
</svg>
