<svg width="24" height="24" viewBox="0 0 24 24" fill="none" xmlns="http://www.w3.org/2000/svg">
<path d="M5.09202 21.782L4.63803 22.673H4.63803L5.09202 21.782ZM4.21799 20.908L3.32698 21.362H3.32698L4.21799 20.908ZM19.782 20.908L20.673 21.362L19.782 20.908ZM18.908 21.782L19.362 22.673L19.362 22.673L18.908 21.782ZM18.908 4.21805L19.362 3.32704L18.908 4.21805ZM19.782 5.09208L18.891 5.54607V5.54607L19.782 5.09208ZM5.09202 4.21805L5.54601 5.10905H5.54601L5.09202 4.21805ZM4.21799 5.09208L3.32698 4.63809L4.21799 5.09208ZM8 8C7.44772 8 7 8.44772 7 9C7 9.55228 7.44772 10 8 10V8ZM16 10C16.5523 10 17 9.55228 17 9C17 8.44772 16.5523 8 16 8V10ZM8 12C7.44772 12 7 12.4477 7 13C7 13.5523 7.44772 14 8 14V12ZM12 14C12.5523 14 13 13.5523 13 13C13 12.4477 12.5523 12 12 12V14ZM8 16C7.44772 16 7 16.4477 7 17C7 17.5523 7.44772 18 8 18V16ZM16 18C16.5523 18 17 17.5523 17 17C17 16.4477 16.5523 16 16 16V18ZM19 7.20006V18.8H21V7.20006H19ZM16.8 21H7.2V23H16.8V21ZM5 18.8V7.20006H3V18.8H5ZM7.2 21C6.62345 21 6.25117 20.9992 5.96784 20.9761C5.69617 20.9539 5.59545 20.9162 5.54601 20.891L4.63803 22.673C5.01641 22.8658 5.40963 22.9371 5.80497 22.9694C6.18864 23.0008 6.65645 23 7.2 23V21ZM3 18.8C3 19.3436 2.99922 19.8114 3.03057 20.195C3.06287 20.5904 3.13419 20.9836 3.32698 21.362L5.10899 20.454C5.0838 20.4045 5.04612 20.3038 5.02393 20.0322C5.00078 19.7488 5 19.3766 5 18.8H3ZM5.54601 20.891C5.35785 20.7951 5.20487 20.6421 5.10899 20.454L3.32698 21.362C3.6146 21.9265 4.07354 22.3854 4.63803 22.673L5.54601 20.891ZM19 18.8C19 19.3766 18.9992 19.7488 18.9761 20.0322C18.9539 20.3038 18.9162 20.4045 18.891 20.454L20.673 21.362C20.8658 20.9836 20.9371 20.5904 20.9694 20.195C21.0008 19.8114 21 19.3436 21 18.8H19ZM16.8 23C17.3436 23 17.8114 23.0008 18.195 22.9694C18.5904 22.9371 18.9836 22.8658 19.362 22.673L18.454 20.891C18.4045 20.9162 18.3038 20.9539 18.0322 20.9761C17.7488 20.9992 17.3766 21 16.8 21V23ZM18.891 20.454C18.7951 20.6421 18.6422 20.7951 18.454 20.891L19.362 22.673C19.9265 22.3854 20.3854 21.9265 20.673 21.362L18.891 20.454ZM16.8 5.00006C17.3766 5.00006 17.7488 5.00084 18.0322 5.02399C18.3038 5.04618 18.4045 5.08386 18.454 5.10905L19.362 3.32704C18.9836 3.13425 18.5904 3.06293 18.195 3.03063C17.8114 2.99928 17.3436 3.00006 16.8 3.00006V5.00006ZM21 7.20006C21 6.65651 21.0008 6.1887 20.9694 5.80503C20.9371 5.40969 20.8658 5.01647 20.673 4.63809L18.891 5.54607C18.9162 5.59551 18.9539 5.69623 18.9761 5.96789C18.9992 6.25123 19 6.62351 19 7.20006H21ZM18.454 5.10905C18.6422 5.20493 18.7951 5.35791 18.891 5.54607L20.673 4.63809C20.3854 4.0736 19.9265 3.61466 19.362 3.32704L18.454 5.10905ZM7.2 3.00006C6.65645 3.00006 6.18864 2.99928 5.80497 3.03063C5.40963 3.06293 5.01641 3.13425 4.63803 3.32704L5.54601 5.10905C5.59545 5.08386 5.69617 5.04618 5.96784 5.02399C6.25117 5.00084 6.62345 5.00006 7.2 5.00006V3.00006ZM5 7.20006C5 6.62351 5.00078 6.25123 5.02393 5.9679C5.04612 5.69623 5.0838 5.59551 5.10899 5.54607L3.32698 4.63809C3.13419 5.01647 3.06287 5.40969 3.03057 5.80503C2.99922 6.1887 3 6.65651 3 7.20006H5ZM4.63803 3.32704C4.07354 3.61466 3.6146 4.0736 3.32698 4.63809L5.10899 5.54607C5.20487 5.35791 5.35785 5.20493 5.54601 5.10905L4.63803 3.32704ZM7.2 5.00006H8V3.00006H7.2V5.00006ZM16.8 3.00006H16V5.00006H16.8V3.00006ZM8.5 3H15.5V1H8.5V3ZM15 2.5V4.5H17V2.5H15ZM15.5 4H8.5V6H15.5V4ZM9 4.5V2.5H7V4.5H9ZM8.5 4C8.77614 4 9 4.22386 9 4.5H7C7 5.32843 7.67157 6 8.5 6V4ZM15 4.5C15 4.22386 15.2239 4 15.5 4V6C16.3284 6 17 5.32843 17 4.5H15ZM15.5 3C15.2239 3 15 2.77614 15 2.5H17C17 1.67157 16.3284 1 15.5 1V3ZM8.5 1C7.67157 1 7 1.67157 7 2.5H9C9 2.77614 8.77614 3 8.5 3V1ZM8 10H16V8H8V10ZM8 14H12V12H8V14ZM8 18H16V16H8V18Z" fill="black"/>
</svg>
