<svg width="24" height="24" viewBox="0 0 24 24" fill="none" xmlns="http://www.w3.org/2000/svg">
<path d="M11.3536 9.35355L12.0607 8.64645L11.3536 9.35355ZM14.6464 12.6464L13.9393 13.3536L14.6464 12.6464ZM15.3536 12.6464L16.0607 13.3536L16.0607 13.3536L15.3536 12.6464ZM21.7071 7.70711C22.0976 7.31658 22.0976 6.68342 21.7071 6.29289C21.3166 5.90237 20.6834 5.90237 20.2929 6.29289L21.7071 7.70711ZM5.29289 13.2929C4.90237 13.6834 4.90237 14.3166 5.29289 14.7071C5.68342 15.0976 6.31658 15.0976 6.70711 14.7071L5.29289 13.2929ZM10.6464 9.35355L11.3536 10.0607L11.3536 10.0607L10.6464 9.35355ZM17 5C16.4477 5 16 5.44772 16 6C16 6.55228 16.4477 7 17 7V5ZM21 11C21 11.5523 21.4477 12 22 12C22.5523 12 23 11.5523 23 11H21ZM22 21C22.5523 21 23 20.5523 23 20C23 19.4477 22.5523 19 22 19V21ZM3 4C3 3.44772 2.55228 3 2 3C1.44772 3 1 3.44772 1 4H3ZM4.18404 19.564L4.63803 18.673H4.63803L4.18404 19.564ZM2.43597 17.816L1.54497 18.27L2.43597 17.816ZM10.6464 10.0607L13.9393 13.3536L15.3536 11.9393L12.0607 8.64645L10.6464 10.0607ZM16.0607 13.3536L21.7071 7.70711L20.2929 6.29289L14.6464 11.9393L16.0607 13.3536ZM6.70711 14.7071L11.3536 10.0607L9.93934 8.64645L5.29289 13.2929L6.70711 14.7071ZM13.9393 13.3536C14.5251 13.9393 15.4749 13.9393 16.0607 13.3536L14.6464 11.9393C14.8417 11.7441 15.1583 11.7441 15.3536 11.9393L13.9393 13.3536ZM12.0607 8.64645C11.4749 8.06066 10.5251 8.06066 9.93934 8.64645L11.3536 10.0607C11.1583 10.2559 10.8417 10.2559 10.6464 10.0607L12.0607 8.64645ZM17 7H21.5V5H17V7ZM21 6.5V11H23V6.5H21ZM21.5 7C21.2239 7 21 6.77614 21 6.5H23C23 5.67157 22.3284 5 21.5 5V7ZM22 19H8.4V21H22V19ZM3 13.6V4H1V13.6H3ZM8.4 19C7.26339 19 6.47108 18.9992 5.85424 18.9488C5.24907 18.8994 4.90138 18.8072 4.63803 18.673L3.73005 20.455C4.32234 20.7568 4.96253 20.8826 5.69138 20.9422C6.40855 21.0008 7.2964 21 8.4 21V19ZM1 13.6C1 14.7036 0.999222 15.5914 1.05782 16.3086C1.11737 17.0375 1.24318 17.6777 1.54497 18.27L3.32698 17.362C3.19279 17.0986 3.10062 16.7509 3.05118 16.1458C3.00078 15.5289 3 14.7366 3 13.6H1ZM4.63803 18.673C4.07354 18.3854 3.6146 17.9265 3.32698 17.362L1.54497 18.27C2.02433 19.2108 2.78924 19.9757 3.73005 20.455L4.63803 18.673Z" fill="black"/>
</svg>
