<svg width="49" height="35" viewBox="0 0 49 35" fill="none" xmlns="http://www.w3.org/2000/svg">
<path d="M15.084 25.1582C17.6419 25.1582 19.697 27.2584 19.6973 29.832L19.6914 30.0713C19.5686 32.529 17.5617 34.5 15.084 34.5C12.5337 34.4999 10.4717 32.4 10.4717 29.832C10.4719 27.2578 12.5333 25.1583 15.084 25.1582ZM36.6133 25.1582C39.1642 25.1582 41.2264 27.2578 41.2266 29.832L41.2207 30.0713C41.0975 32.5295 39.0841 34.5 36.6133 34.5C34.056 34.4998 32.001 32.3994 32.001 29.832C32.0012 27.2584 34.0556 25.1584 36.6133 25.1582ZM15.084 28.249C14.2292 28.2491 13.5275 28.9495 13.5273 29.832C13.5273 30.7089 14.2301 31.4159 15.084 31.416C15.9378 31.416 16.6406 30.7089 16.6406 29.832C16.6404 28.9495 15.9388 28.249 15.084 28.249ZM36.6133 28.249C35.7586 28.2492 35.0578 28.9496 35.0576 29.832C35.0576 30.7088 35.7595 31.4158 36.6133 31.416C37.4672 31.416 38.17 30.7089 38.1699 29.832L38.1621 29.6689C38.0818 28.8647 37.4147 28.249 36.6133 28.249ZM12.8633 25.1582L11.8701 26.0332C10.9916 26.8077 10.3844 27.8868 10.21 29.1055L10.1484 29.5352H1.66113C1.01528 29.5351 0.500185 29.0036 0.5 28.3652V26.3281C0.5 25.6898 1.01502 25.1583 1.66113 25.1582H12.8633ZM36.415 4.6543C38.3431 4.6543 40.138 5.62437 41.2148 7.23535H41.2158L45.2422 13.2793V13.2803L45.3594 13.4629C45.9272 14.3887 46.2324 15.4603 46.2324 16.5518V25.1582H47.3389C47.9849 25.1583 48.5 25.6898 48.5 26.3281V28.3652C48.4998 29.0034 47.9849 29.5351 47.3389 29.5352H41.5498L41.4883 29.1064C41.1386 26.6813 39.0845 24.8174 36.6133 24.8174C34.1415 24.8176 32.0819 26.6821 31.7324 29.1064L31.6709 29.5352H20.0264L19.9648 29.1055C19.7904 27.8867 19.1831 26.8083 18.2988 26.0342L17.2979 25.1582H28.3506V6.49414C28.3507 5.48895 29.1559 4.6543 30.1738 4.6543H36.415ZM24.9756 0.5C26.3534 0.5 27.4598 1.62986 27.46 3.00977V22.9844C27.46 23.6226 26.9447 24.1541 26.2988 24.1543H1.96582C1.31984 24.1543 0.803657 23.6228 0.803711 22.9844V3.00977C0.803916 1.62986 1.91025 0.5 3.28809 0.5H24.9756ZM15.2256 6.78223C15.0325 6.58688 14.6807 6.71171 14.6807 7.01953V9.86328H7.68945C7.51861 9.86328 7.36832 10.005 7.36816 10.1943V15.1846L7.375 15.2529C7.40594 15.4072 7.53986 15.5166 7.68945 15.5166H14.6807V18.3604C14.6807 18.6683 15.0334 18.7935 15.2266 18.5977L20.8203 12.9268L20.8623 12.875C20.9344 12.7639 20.9344 12.6171 20.8623 12.5059L20.8203 12.4531L15.2266 6.78223H15.2256ZM32.5137 9.29297C32.4326 9.29323 32.3525 9.36446 32.3525 9.46289V14.0928C32.3526 14.1946 32.4293 14.2625 32.5137 14.2627H40.7529C40.8717 14.2627 40.9669 14.1165 40.8828 13.9941V13.9932L37.665 9.36133C37.6293 9.31503 37.5812 9.29306 37.5332 9.29297H32.5137Z" fill="url(#paint0_linear_58_8389)" stroke="url(#paint1_linear_58_8389)"/>
<defs>
<linearGradient id="paint0_linear_58_8389" x1="24.5" y1="1" x2="24.5" y2="34" gradientUnits="userSpaceOnUse">
<stop offset="0.199849" stop-color="white" stop-opacity="0.55"/>
<stop offset="1" stop-color="#001133" stop-opacity="0"/>
</linearGradient>
<linearGradient id="paint1_linear_58_8389" x1="24.5" y1="1" x2="24.5" y2="34" gradientUnits="userSpaceOnUse">
<stop offset="0.447776" stop-color="white"/>
<stop offset="1" stop-color="white" stop-opacity="0"/>
</linearGradient>
</defs>
</svg>
