<svg width="41" height="41" viewBox="0 0 41 41" fill="none" xmlns="http://www.w3.org/2000/svg">
<path d="M21.8461 4.16617C24.708 1.13416 28.9897 0.249329 32.7279 1.49527H32.7269C33.1974 1.62427 33.5583 1.94966 33.6713 2.40152C33.7714 2.8023 33.6547 3.21293 33.3871 3.54605L33.264 3.68375L27.6674 9.28043L31.7201 13.3332L37.2904 7.76187C37.599 7.34659 38.0998 7.2282 38.5258 7.32632C38.9683 7.42846 39.3715 7.76807 39.5092 8.29312H39.5111C40.5747 12.0164 39.6948 16.2825 36.8422 19.1427L36.8431 19.1437C33.7205 22.4398 29.0815 23.2052 25.222 21.6115L10.3334 38.3419L10.3285 38.3478C8.27863 40.584 4.90129 40.7818 2.65173 38.548V38.549C0.371716 36.4589 0.591054 32.8866 2.82263 30.841L2.82751 30.8361L19.558 15.9455C18.0183 12.2061 18.6771 7.59661 21.5521 4.47281L21.8461 4.16617ZM26.1918 24.4269C27.2143 24.5973 28.1969 24.7599 29.3402 24.7599H30.891L31.0336 24.8878L37.6644 30.838L37.6683 30.841L37.8724 31.0382C39.9187 33.1068 40.0327 36.3543 37.8539 38.5334C35.7619 40.7967 32.2024 40.5742 30.1615 38.3478L30.1556 38.3419L22.1664 29.3322L21.8734 29.0021L22.1635 28.6711L25.7338 24.591L25.9174 24.381L26.1918 24.4269ZM10.4603 8.22281L16.5804 14.3429V15.2785L16.4193 15.4279L14.2094 17.4669L13.8558 17.7931L13.516 17.4533L7.37341 11.3097H4.91736L4.77087 11.0675L1.20154 5.11734L1.00037 4.78238L3.65662 2.12613L3.93298 1.85074L4.26697 2.05093L10.2172 5.62125L10.4603 5.76675V8.22281Z" fill="url(#paint0_linear_58_8415)" stroke="url(#paint1_linear_58_8415)"/>
<defs>
<linearGradient id="paint0_linear_58_8415" x1="20.4948" y1="1.44937" x2="20" y2="47" gradientUnits="userSpaceOnUse">
<stop offset="0.258244" stop-color="white" stop-opacity="0.56"/>
<stop offset="0.823219" stop-color="#003399" stop-opacity="0"/>
</linearGradient>
<linearGradient id="paint1_linear_58_8415" x1="20.4948" y1="1.44937" x2="20.4948" y2="39.6276" gradientUnits="userSpaceOnUse">
<stop offset="0.37351" stop-color="white"/>
<stop offset="1" stop-color="white" stop-opacity="0"/>
</linearGradient>
</defs>
</svg>
